M48
INCH,TZ
T1C0.013
T2C0.016
T3C0.024
T4C0.031
T5C0.039
T6C0.039
T7C0.040
T8C0.043
T9C0.046
T10C0.047
T11C0.060
T12C0.095
T13C0.100
%
G90
G05
T1
X37218Y-39589
X37318Y-40589
X37818Y-34939
X38168Y-42439
X38268Y-32539
X38768Y-42389
X40968Y-38539
X40968Y-41689
X41368Y-36139
X41468Y-35689
X41968Y-41689
X42018Y-32139
X42918Y-49689
X43418Y-50739
X43618Y-44989
X44218Y-44289
X44568Y-45639
X46068Y-45289
X48118Y-49289
X48568Y-34039
X49360Y-43457
X49368Y-42989
X49368Y-43889
X49868Y-44571
X50285Y-47689
X50518Y-44589
X51218Y-44739
X51351Y-42239
X51568Y-35439
X51968Y-41839
X52056Y-44701
X52068Y-48139
X52174Y-44352
X52218Y-36589
X52368Y-44039
X53568Y-33889
X53568Y-35839
X53618Y-37189
X54618Y-42789
X54654Y-43557
X55118Y-43139
X55118Y-43889
X55618Y-44689
X55868Y-45089
X57418Y-44389
X57568Y-40589
X57568Y-41089
X58318Y-45389
X58318Y-45889
X58618Y-41389
X61768Y-38689
X62718Y-38789
X63418Y-49039
X63768Y-47889
X64068Y-38439
X64118Y-37789
X64668Y-39939
X64968Y-38989
X64968Y-40739
X65868Y-46689
X66568Y-52889
X66868Y-37789
X67918Y-41489
X68068Y-38889
X70168Y-37789
T2
X48168Y-50239
X69074Y-43689
X69468Y-43689
T3
X48909Y-36811
X49409Y-36811
X49909Y-36811
T4
X56496Y-29921
X57496Y-29921
X58496Y-29921
T5
X46018Y-36839
X47018Y-36839
T6
X59843Y-33858
X59843Y-34858
X59868Y-36339
X59868Y-37339
T7
X44213Y-46780
X45213Y-46780
X46213Y-46780
X47213Y-46780
X47716Y-45283
X48213Y-38780
X48213Y-46780
X48716Y-45283
X49213Y-38780
X49213Y-46780
X49214Y-32283
X50213Y-38780
X50213Y-46780
X50394Y-32283
X51213Y-38780
X51213Y-46780
X51574Y-32283
X52213Y-38780
X52213Y-46780
X52754Y-32283
X53213Y-38780
X53213Y-46780
X54213Y-38780
X54213Y-46780
X55213Y-38780
X55213Y-46780
X55868Y-49410
X55868Y-50590
X56213Y-38780
X56213Y-46780
X56300Y-32283
X57048Y-49410
X57048Y-50590
X57213Y-38780
X57213Y-46780
X57480Y-32283
X58213Y-38780
X58213Y-46780
X58660Y-32283
X59213Y-38780
X59213Y-46780
X71528Y-40954
X71528Y-42134
X71528Y-45354
X71528Y-46534
T8
X37402Y-47244
X39370Y-45276
X39370Y-49213
T9
X42520Y-29528
T10
X45276Y-48984
X45276Y-49984
X45276Y-50984
X59843Y-48803
X59843Y-49803
X59843Y-50803
X62039Y-32677
X63039Y-32677
X64748Y-50000
X64976Y-32677
X65748Y-50000
X65976Y-32677
X67913Y-32677
X68913Y-32677
X69669Y-50000
X69913Y-32677
X70669Y-50000
X70913Y-32677
T11
X42520Y-37402
T12
X71528Y-40104
X71528Y-42974
X71528Y-44504
X71528Y-47374
T13
X42713Y-39280
X42713Y-46280
X60713Y-39280
X60713Y-46280
T0
M30
