G04 #@! TF.GenerationSoftware,KiCad,Pcbnew,no-vcs-found-01f5a12~58~ubuntu16.04.1*
G04 #@! TF.CreationDate,2017-04-25T17:38:21-04:00*
G04 #@! TF.ProjectId,noeud_senseur,6E6F6575645F73656E736575722E6B69,rev?*
G04 #@! TF.FileFunction,Soldermask,Top*
G04 #@! TF.FilePolarity,Negative*
%FSLAX46Y46*%
G04 Gerber Fmt 4.6, Leading zero omitted, Abs format (unit mm)*
G04 Created by KiCad (PCBNEW no-vcs-found-01f5a12~58~ubuntu16.04.1) date Tue Apr 25 17:38:21 2017*
%MOMM*%
%LPD*%
G01*
G04 APERTURE LIST*
%ADD10C,0.100000*%
%ADD11C,6.000000*%
%ADD12C,1.924000*%
%ADD13R,1.924000X1.924000*%
%ADD14C,1.797000*%
%ADD15R,1.797000X1.797000*%
%ADD16C,2.940000*%
%ADD17R,1.670000X1.670000*%
%ADD18C,1.670000*%
%ADD19R,2.000000X2.000000*%
%ADD20C,2.000000*%
%ADD21R,1.050000X2.100000*%
%ADD22R,1.900000X1.650000*%
%ADD23R,1.950000X1.400000*%
%ADD24R,1.800000X1.200000*%
%ADD25R,1.400000X1.850000*%
%ADD26R,1.900000X1.200000*%
%ADD27R,1.900000X1.700000*%
%ADD28R,1.900000X1.900000*%
%ADD29R,2.150000X1.100000*%
%ADD30R,2.000000X3.000000*%
%ADD31R,1.650000X1.900000*%
%ADD32R,2.400000X2.300000*%
%ADD33C,2.300000*%
%ADD34C,1.000000*%
%ADD35R,1.300000X1.900000*%
%ADD36O,1.300000X1.900000*%
%ADD37R,1.700000X1.900000*%
%ADD38R,2.100000X2.100000*%
%ADD39O,2.100000X2.100000*%
%ADD40O,2.127200X2.432000*%
%ADD41C,3.448000*%
%ADD42R,1.000000X1.950000*%
%ADD43R,2.400000X1.000000*%
%ADD44R,2.800000X1.500000*%
%ADD45C,2.432000*%
%ADD46R,2.432000X2.432000*%
%ADD47O,2.400000X3.000000*%
%ADD48R,2.400000X3.000000*%
%ADD49R,1.920000X1.920000*%
%ADD50C,1.920000*%
%ADD51R,3.000000X2.000000*%
%ADD52R,3.000000X2.400000*%
%ADD53O,3.000000X2.400000*%
%ADD54R,2.300000X1.200000*%
G04 APERTURE END LIST*
D10*
D11*
X185000000Y-76000000D03*
X155000000Y-76000000D03*
X125000000Y-76000000D03*
X95000000Y-76000000D03*
X185000000Y-134000000D03*
X155000000Y-134000000D03*
X125000000Y-134000000D03*
X95000000Y-134000000D03*
D12*
X136991600Y-80044200D03*
X122005600Y-80044200D03*
X133994400Y-82000000D03*
X130997200Y-82000000D03*
X128000000Y-82000000D03*
D13*
X125002800Y-82000000D03*
D14*
X140005600Y-80044200D03*
X151994400Y-80044200D03*
X148997200Y-82000000D03*
X146000000Y-82000000D03*
D15*
X143002800Y-82000000D03*
D16*
X181681399Y-109152900D03*
X181681399Y-101863101D03*
D17*
X181681399Y-104022101D03*
D18*
X181681399Y-107019301D03*
D16*
X181681399Y-120328900D03*
X181681399Y-113039101D03*
D17*
X181681399Y-115198101D03*
D18*
X181681399Y-118195301D03*
D12*
X141904999Y-128498600D03*
X141904999Y-125501400D03*
D13*
X144902199Y-125501400D03*
D12*
X144902199Y-128498600D03*
X140965199Y-122504200D03*
X140965199Y-131495800D03*
D19*
X95000000Y-120000000D03*
D20*
X100000000Y-125000000D03*
X100000000Y-115000000D03*
D21*
X114595000Y-100850000D03*
X115865000Y-100850000D03*
X117135000Y-100850000D03*
X118405000Y-100850000D03*
X118405000Y-108150000D03*
X117135000Y-108150000D03*
X115865000Y-108150000D03*
X114595000Y-108150000D03*
D22*
X95750000Y-93500000D03*
X98250000Y-93500000D03*
D23*
X103425000Y-110350000D03*
D24*
X101000000Y-110500000D03*
D25*
X101850000Y-98875000D03*
D26*
X100350000Y-98550000D03*
D27*
X92750000Y-98800000D03*
D28*
X92750000Y-110150000D03*
D29*
X92625000Y-107700000D03*
X92625000Y-106600000D03*
X92625000Y-105500000D03*
X92625000Y-104400000D03*
X92625000Y-103300000D03*
X92625000Y-102200000D03*
X92625000Y-101100000D03*
X92625000Y-100000000D03*
D30*
X135500000Y-128300000D03*
X135500000Y-124700000D03*
D22*
X169250000Y-118500000D03*
X171750000Y-118500000D03*
X169992000Y-107032000D03*
X172492000Y-107032000D03*
X172492000Y-103730000D03*
X169992000Y-103730000D03*
X98250000Y-91000000D03*
X95750000Y-91000000D03*
X157750000Y-101000000D03*
X160250000Y-101000000D03*
D31*
X111806000Y-103242000D03*
X111806000Y-105742000D03*
D32*
X152065000Y-92300000D03*
D33*
X152065000Y-94840000D03*
X152000000Y-88540000D03*
D32*
X152000000Y-86000000D03*
D34*
X176449000Y-110969000D03*
X175449000Y-110969000D03*
D35*
X126770000Y-93500000D03*
D36*
X124230000Y-93500000D03*
X125500000Y-93500000D03*
D27*
X121850000Y-88500000D03*
X119150000Y-88500000D03*
D37*
X103500000Y-121350000D03*
X103500000Y-118650000D03*
X106500000Y-124350000D03*
X106500000Y-121650000D03*
X109000000Y-124350000D03*
X109000000Y-121650000D03*
X120000000Y-129850000D03*
X120000000Y-127150000D03*
X120000000Y-124350000D03*
X120000000Y-121650000D03*
X124500000Y-121650000D03*
X124500000Y-124350000D03*
X124500000Y-129850000D03*
X124500000Y-127150000D03*
D38*
X119426000Y-93570000D03*
D39*
X116886000Y-93570000D03*
D40*
X123738000Y-115020000D03*
X121198000Y-115020000D03*
X125000000Y-98500000D03*
X127540000Y-98500000D03*
X130080000Y-98500000D03*
X132620000Y-98500000D03*
X135160000Y-98500000D03*
X137700000Y-98500000D03*
X140240000Y-98500000D03*
X142780000Y-98500000D03*
X145320000Y-98500000D03*
X147860000Y-98500000D03*
X150400000Y-98500000D03*
X150400000Y-118820000D03*
X147860000Y-118820000D03*
X145320000Y-118820000D03*
X142780000Y-118820000D03*
X140240000Y-118820000D03*
X137700000Y-118820000D03*
X135160000Y-118820000D03*
X132620000Y-118820000D03*
X130080000Y-118820000D03*
X127540000Y-118820000D03*
X125000000Y-118820000D03*
X122460000Y-118820000D03*
X122460000Y-98500000D03*
X119920000Y-118820000D03*
X117380000Y-118820000D03*
X114840000Y-118820000D03*
X112300000Y-118820000D03*
D41*
X154210000Y-99770000D03*
X154210000Y-117550000D03*
X108490000Y-117550000D03*
X108490000Y-99770000D03*
D42*
X168595000Y-115700000D03*
X169865000Y-115700000D03*
X171135000Y-115700000D03*
X172405000Y-115700000D03*
X172405000Y-110300000D03*
X171135000Y-110300000D03*
X169865000Y-110300000D03*
X168595000Y-110300000D03*
D43*
X163200000Y-113580000D03*
X163200000Y-112310000D03*
X163200000Y-111040000D03*
X163200000Y-109770000D03*
X163200000Y-108500000D03*
X163200000Y-107230000D03*
X163200000Y-105960000D03*
X163200000Y-104690000D03*
X163200000Y-103420000D03*
X153800000Y-103420000D03*
X153800000Y-104690000D03*
X153800000Y-105960000D03*
X153800000Y-107230000D03*
X153800000Y-108500000D03*
X153800000Y-109770000D03*
X153800000Y-111040000D03*
X153800000Y-112310000D03*
X153800000Y-113580000D03*
D44*
X167114500Y-106617500D03*
X167114500Y-104017500D03*
D45*
X108000000Y-75000000D03*
D46*
X108000000Y-95000000D03*
D47*
X160120000Y-83000000D03*
D48*
X157580000Y-83000000D03*
X167000000Y-127000000D03*
D47*
X164460000Y-127000000D03*
D48*
X179500000Y-127000000D03*
D47*
X176960000Y-127000000D03*
D48*
X165040000Y-83000000D03*
D47*
X167580000Y-83000000D03*
D22*
X95750000Y-96000000D03*
X98250000Y-96000000D03*
D49*
X143500000Y-76000000D03*
D50*
X148580000Y-76000000D03*
X146040000Y-76000000D03*
D47*
X180120000Y-83000000D03*
X177580000Y-83000000D03*
X175040000Y-83000000D03*
D48*
X172500000Y-83000000D03*
D51*
X107764000Y-131162000D03*
X104164000Y-131162000D03*
D30*
X129500000Y-124700000D03*
X129500000Y-128300000D03*
D52*
X115000000Y-129500000D03*
D53*
X115000000Y-126960000D03*
X115000000Y-124420000D03*
D54*
X138119000Y-92747000D03*
X138119000Y-94647000D03*
X141119000Y-93697000D03*
X141000000Y-88500000D03*
X138000000Y-89450000D03*
X138000000Y-87550000D03*
D53*
X152000000Y-123960000D03*
X152000000Y-126500000D03*
D52*
X152000000Y-129040000D03*
M02*
