G04 #@! TF.GenerationSoftware,KiCad,Pcbnew,no-vcs-found-01f5a12~58~ubuntu16.04.1*
G04 #@! TF.CreationDate,2017-04-25T17:38:21-04:00*
G04 #@! TF.ProjectId,noeud_senseur,6E6F6575645F73656E736575722E6B69,rev?*
G04 #@! TF.FileFunction,Legend,Top*
G04 #@! TF.FilePolarity,Positive*
%FSLAX46Y46*%
G04 Gerber Fmt 4.6, Leading zero omitted, Abs format (unit mm)*
G04 Created by KiCad (PCBNEW no-vcs-found-01f5a12~58~ubuntu16.04.1) date Tue Apr 25 17:38:21 2017*
%MOMM*%
%LPD*%
G01*
G04 APERTURE LIST*
%ADD10C,0.100000*%
%ADD11C,0.300000*%
%ADD12C,0.150000*%
%ADD13C,0.120000*%
%ADD14C,0.200000*%
%ADD15C,0.254000*%
G04 APERTURE END LIST*
D10*
D11*
X158935142Y-75762142D02*
X159149428Y-75833571D01*
X159506571Y-75833571D01*
X159649428Y-75762142D01*
X159720857Y-75690714D01*
X159792285Y-75547857D01*
X159792285Y-75405000D01*
X159720857Y-75262142D01*
X159649428Y-75190714D01*
X159506571Y-75119285D01*
X159220857Y-75047857D01*
X159078000Y-74976428D01*
X159006571Y-74905000D01*
X158935142Y-74762142D01*
X158935142Y-74619285D01*
X159006571Y-74476428D01*
X159078000Y-74405000D01*
X159220857Y-74333571D01*
X159578000Y-74333571D01*
X159792285Y-74405000D01*
X161006571Y-75762142D02*
X160863714Y-75833571D01*
X160578000Y-75833571D01*
X160435142Y-75762142D01*
X160363714Y-75619285D01*
X160363714Y-75047857D01*
X160435142Y-74905000D01*
X160578000Y-74833571D01*
X160863714Y-74833571D01*
X161006571Y-74905000D01*
X161078000Y-75047857D01*
X161078000Y-75190714D01*
X160363714Y-75333571D01*
X161720857Y-75833571D02*
X161720857Y-74833571D01*
X161720857Y-75119285D02*
X161792285Y-74976428D01*
X161863714Y-74905000D01*
X162006571Y-74833571D01*
X162149428Y-74833571D01*
X162649428Y-75690714D02*
X162720857Y-75762142D01*
X162649428Y-75833571D01*
X162578000Y-75762142D01*
X162649428Y-75690714D01*
X162649428Y-75833571D01*
X130531142Y-73928571D02*
X130531142Y-72428571D01*
X130888285Y-72428571D01*
X131102571Y-72500000D01*
X131245428Y-72642857D01*
X131316857Y-72785714D01*
X131388285Y-73071428D01*
X131388285Y-73285714D01*
X131316857Y-73571428D01*
X131245428Y-73714285D01*
X131102571Y-73857142D01*
X130888285Y-73928571D01*
X130531142Y-73928571D01*
X131959714Y-73857142D02*
X132174000Y-73928571D01*
X132531142Y-73928571D01*
X132674000Y-73857142D01*
X132745428Y-73785714D01*
X132816857Y-73642857D01*
X132816857Y-73500000D01*
X132745428Y-73357142D01*
X132674000Y-73285714D01*
X132531142Y-73214285D01*
X132245428Y-73142857D01*
X132102571Y-73071428D01*
X132031142Y-73000000D01*
X131959714Y-72857142D01*
X131959714Y-72714285D01*
X132031142Y-72571428D01*
X132102571Y-72500000D01*
X132245428Y-72428571D01*
X132602571Y-72428571D01*
X132816857Y-72500000D01*
X134245428Y-73928571D02*
X133388285Y-73928571D01*
X133816857Y-73928571D02*
X133816857Y-72428571D01*
X133674000Y-72642857D01*
X133531142Y-72785714D01*
X133388285Y-72857142D01*
X135102571Y-73071428D02*
X134959714Y-73000000D01*
X134888285Y-72928571D01*
X134816857Y-72785714D01*
X134816857Y-72714285D01*
X134888285Y-72571428D01*
X134959714Y-72500000D01*
X135102571Y-72428571D01*
X135388285Y-72428571D01*
X135531142Y-72500000D01*
X135602571Y-72571428D01*
X135674000Y-72714285D01*
X135674000Y-72785714D01*
X135602571Y-72928571D01*
X135531142Y-73000000D01*
X135388285Y-73071428D01*
X135102571Y-73071428D01*
X134959714Y-73142857D01*
X134888285Y-73214285D01*
X134816857Y-73357142D01*
X134816857Y-73642857D01*
X134888285Y-73785714D01*
X134959714Y-73857142D01*
X135102571Y-73928571D01*
X135388285Y-73928571D01*
X135531142Y-73857142D01*
X135602571Y-73785714D01*
X135674000Y-73642857D01*
X135674000Y-73357142D01*
X135602571Y-73214285D01*
X135531142Y-73142857D01*
X135388285Y-73071428D01*
X136316857Y-73928571D02*
X136316857Y-72428571D01*
X136316857Y-73000000D02*
X136459714Y-72928571D01*
X136745428Y-72928571D01*
X136888285Y-73000000D01*
X136959714Y-73071428D01*
X137031142Y-73214285D01*
X137031142Y-73642857D01*
X136959714Y-73785714D01*
X136888285Y-73857142D01*
X136745428Y-73928571D01*
X136459714Y-73928571D01*
X136316857Y-73857142D01*
X137602571Y-72571428D02*
X137674000Y-72500000D01*
X137816857Y-72428571D01*
X138174000Y-72428571D01*
X138316857Y-72500000D01*
X138388285Y-72571428D01*
X138459714Y-72714285D01*
X138459714Y-72857142D01*
X138388285Y-73071428D01*
X137531142Y-73928571D01*
X138459714Y-73928571D01*
X139388285Y-72428571D02*
X139531142Y-72428571D01*
X139674000Y-72500000D01*
X139745428Y-72571428D01*
X139816857Y-72714285D01*
X139888285Y-73000000D01*
X139888285Y-73357142D01*
X139816857Y-73642857D01*
X139745428Y-73785714D01*
X139674000Y-73857142D01*
X139531142Y-73928571D01*
X139388285Y-73928571D01*
X139245428Y-73857142D01*
X139174000Y-73785714D01*
X139102571Y-73642857D01*
X139031142Y-73357142D01*
X139031142Y-73000000D01*
X139102571Y-72714285D01*
X139174000Y-72571428D01*
X139245428Y-72500000D01*
X139388285Y-72428571D01*
X161618857Y-92063714D02*
X161547428Y-92135142D01*
X161333142Y-92206571D01*
X161190285Y-92206571D01*
X160976000Y-92135142D01*
X160833142Y-91992285D01*
X160761714Y-91849428D01*
X160690285Y-91563714D01*
X160690285Y-91349428D01*
X160761714Y-91063714D01*
X160833142Y-90920857D01*
X160976000Y-90778000D01*
X161190285Y-90706571D01*
X161333142Y-90706571D01*
X161547428Y-90778000D01*
X161618857Y-90849428D01*
X162476000Y-92206571D02*
X162333142Y-92135142D01*
X162261714Y-92063714D01*
X162190285Y-91920857D01*
X162190285Y-91492285D01*
X162261714Y-91349428D01*
X162333142Y-91278000D01*
X162476000Y-91206571D01*
X162690285Y-91206571D01*
X162833142Y-91278000D01*
X162904571Y-91349428D01*
X162976000Y-91492285D01*
X162976000Y-91920857D01*
X162904571Y-92063714D01*
X162833142Y-92135142D01*
X162690285Y-92206571D01*
X162476000Y-92206571D01*
X163618857Y-92206571D02*
X163618857Y-90706571D01*
X163618857Y-91278000D02*
X163761714Y-91206571D01*
X164047428Y-91206571D01*
X164190285Y-91278000D01*
X164261714Y-91349428D01*
X164333142Y-91492285D01*
X164333142Y-91920857D01*
X164261714Y-92063714D01*
X164190285Y-92135142D01*
X164047428Y-92206571D01*
X163761714Y-92206571D01*
X163618857Y-92135142D01*
X166047428Y-92135142D02*
X166261714Y-92206571D01*
X166618857Y-92206571D01*
X166761714Y-92135142D01*
X166833142Y-92063714D01*
X166904571Y-91920857D01*
X166904571Y-91778000D01*
X166833142Y-91635142D01*
X166761714Y-91563714D01*
X166618857Y-91492285D01*
X166333142Y-91420857D01*
X166190285Y-91349428D01*
X166118857Y-91278000D01*
X166047428Y-91135142D01*
X166047428Y-90992285D01*
X166118857Y-90849428D01*
X166190285Y-90778000D01*
X166333142Y-90706571D01*
X166690285Y-90706571D01*
X166904571Y-90778000D01*
X167333142Y-91206571D02*
X167904571Y-91206571D01*
X167547428Y-90706571D02*
X167547428Y-91992285D01*
X167618857Y-92135142D01*
X167761714Y-92206571D01*
X167904571Y-92206571D01*
X168404571Y-91635142D02*
X169547428Y-91635142D01*
X170190285Y-91778000D02*
X170904571Y-91778000D01*
X170047428Y-92206571D02*
X170547428Y-90706571D01*
X171047428Y-92206571D01*
X171547428Y-92206571D02*
X171547428Y-91206571D01*
X171547428Y-91349428D02*
X171618857Y-91278000D01*
X171761714Y-91206571D01*
X171976000Y-91206571D01*
X172118857Y-91278000D01*
X172190285Y-91420857D01*
X172190285Y-92206571D01*
X172190285Y-91420857D02*
X172261714Y-91278000D01*
X172404571Y-91206571D01*
X172618857Y-91206571D01*
X172761714Y-91278000D01*
X172833142Y-91420857D01*
X172833142Y-92206571D01*
X173547428Y-92206571D02*
X173547428Y-90706571D01*
X173547428Y-91278000D02*
X173690285Y-91206571D01*
X173976000Y-91206571D01*
X174118857Y-91278000D01*
X174190285Y-91349428D01*
X174261714Y-91492285D01*
X174261714Y-91920857D01*
X174190285Y-92063714D01*
X174118857Y-92135142D01*
X173976000Y-92206571D01*
X173690285Y-92206571D01*
X173547428Y-92135142D01*
X174904571Y-92206571D02*
X174904571Y-91206571D01*
X174904571Y-91492285D02*
X174976000Y-91349428D01*
X175047428Y-91278000D01*
X175190285Y-91206571D01*
X175333142Y-91206571D01*
X176047428Y-92206571D02*
X175904571Y-92135142D01*
X175833142Y-92063714D01*
X175761714Y-91920857D01*
X175761714Y-91492285D01*
X175833142Y-91349428D01*
X175904571Y-91278000D01*
X176047428Y-91206571D01*
X176261714Y-91206571D01*
X176404571Y-91278000D01*
X176476000Y-91349428D01*
X176547428Y-91492285D01*
X176547428Y-91920857D01*
X176476000Y-92063714D01*
X176404571Y-92135142D01*
X176261714Y-92206571D01*
X176047428Y-92206571D01*
X177190285Y-92206571D02*
X177190285Y-91206571D01*
X177190285Y-90706571D02*
X177118857Y-90778000D01*
X177190285Y-90849428D01*
X177261714Y-90778000D01*
X177190285Y-90706571D01*
X177190285Y-90849428D01*
X177833142Y-92135142D02*
X177976000Y-92206571D01*
X178261714Y-92206571D01*
X178404571Y-92135142D01*
X178476000Y-91992285D01*
X178476000Y-91920857D01*
X178404571Y-91778000D01*
X178261714Y-91706571D01*
X178047428Y-91706571D01*
X177904571Y-91635142D01*
X177833142Y-91492285D01*
X177833142Y-91420857D01*
X177904571Y-91278000D01*
X178047428Y-91206571D01*
X178261714Y-91206571D01*
X178404571Y-91278000D01*
X179690285Y-92135142D02*
X179547428Y-92206571D01*
X179261714Y-92206571D01*
X179118857Y-92135142D01*
X179047428Y-91992285D01*
X179047428Y-91420857D01*
X179118857Y-91278000D01*
X179261714Y-91206571D01*
X179547428Y-91206571D01*
X179690285Y-91278000D01*
X179761714Y-91420857D01*
X179761714Y-91563714D01*
X179047428Y-91706571D01*
X159190285Y-94613714D02*
X159118857Y-94685142D01*
X158904571Y-94756571D01*
X158761714Y-94756571D01*
X158547428Y-94685142D01*
X158404571Y-94542285D01*
X158333142Y-94399428D01*
X158261714Y-94113714D01*
X158261714Y-93899428D01*
X158333142Y-93613714D01*
X158404571Y-93470857D01*
X158547428Y-93328000D01*
X158761714Y-93256571D01*
X158904571Y-93256571D01*
X159118857Y-93328000D01*
X159190285Y-93399428D01*
X160047428Y-94756571D02*
X159904571Y-94685142D01*
X159833142Y-94613714D01*
X159761714Y-94470857D01*
X159761714Y-94042285D01*
X159833142Y-93899428D01*
X159904571Y-93828000D01*
X160047428Y-93756571D01*
X160261714Y-93756571D01*
X160404571Y-93828000D01*
X160476000Y-93899428D01*
X160547428Y-94042285D01*
X160547428Y-94470857D01*
X160476000Y-94613714D01*
X160404571Y-94685142D01*
X160261714Y-94756571D01*
X160047428Y-94756571D01*
X161190285Y-94756571D02*
X161190285Y-93756571D01*
X161190285Y-93899428D02*
X161261714Y-93828000D01*
X161404571Y-93756571D01*
X161618857Y-93756571D01*
X161761714Y-93828000D01*
X161833142Y-93970857D01*
X161833142Y-94756571D01*
X161833142Y-93970857D02*
X161904571Y-93828000D01*
X162047428Y-93756571D01*
X162261714Y-93756571D01*
X162404571Y-93828000D01*
X162476000Y-93970857D01*
X162476000Y-94756571D01*
X163190285Y-93756571D02*
X163190285Y-95256571D01*
X163190285Y-93828000D02*
X163333142Y-93756571D01*
X163618857Y-93756571D01*
X163761714Y-93828000D01*
X163833142Y-93899428D01*
X163904571Y-94042285D01*
X163904571Y-94470857D01*
X163833142Y-94613714D01*
X163761714Y-94685142D01*
X163618857Y-94756571D01*
X163333142Y-94756571D01*
X163190285Y-94685142D01*
X164761714Y-94756571D02*
X164618857Y-94685142D01*
X164547428Y-94613714D01*
X164476000Y-94470857D01*
X164476000Y-94042285D01*
X164547428Y-93899428D01*
X164618857Y-93828000D01*
X164761714Y-93756571D01*
X164976000Y-93756571D01*
X165118857Y-93828000D01*
X165190285Y-93899428D01*
X165261714Y-94042285D01*
X165261714Y-94470857D01*
X165190285Y-94613714D01*
X165118857Y-94685142D01*
X164976000Y-94756571D01*
X164761714Y-94756571D01*
X165833142Y-94685142D02*
X165976000Y-94756571D01*
X166261714Y-94756571D01*
X166404571Y-94685142D01*
X166476000Y-94542285D01*
X166476000Y-94470857D01*
X166404571Y-94328000D01*
X166261714Y-94256571D01*
X166047428Y-94256571D01*
X165904571Y-94185142D01*
X165833142Y-94042285D01*
X165833142Y-93970857D01*
X165904571Y-93828000D01*
X166047428Y-93756571D01*
X166261714Y-93756571D01*
X166404571Y-93828000D01*
X166904571Y-93756571D02*
X167476000Y-93756571D01*
X167118857Y-93256571D02*
X167118857Y-94542285D01*
X167190285Y-94685142D01*
X167333142Y-94756571D01*
X167476000Y-94756571D01*
X167976000Y-94756571D02*
X167976000Y-93256571D01*
X168833142Y-94756571D01*
X168833142Y-93256571D01*
X169761714Y-94756571D02*
X169618857Y-94685142D01*
X169547428Y-94613714D01*
X169476000Y-94470857D01*
X169476000Y-94042285D01*
X169547428Y-93899428D01*
X169618857Y-93828000D01*
X169761714Y-93756571D01*
X169976000Y-93756571D01*
X170118857Y-93828000D01*
X170190285Y-93899428D01*
X170261714Y-94042285D01*
X170261714Y-94470857D01*
X170190285Y-94613714D01*
X170118857Y-94685142D01*
X169976000Y-94756571D01*
X169761714Y-94756571D01*
X171547428Y-94756571D02*
X171547428Y-93256571D01*
X171547428Y-94685142D02*
X171404571Y-94756571D01*
X171118857Y-94756571D01*
X170976000Y-94685142D01*
X170904571Y-94613714D01*
X170833142Y-94470857D01*
X170833142Y-94042285D01*
X170904571Y-93899428D01*
X170976000Y-93828000D01*
X171118857Y-93756571D01*
X171404571Y-93756571D01*
X171547428Y-93828000D01*
X172833142Y-94685142D02*
X172690285Y-94756571D01*
X172404571Y-94756571D01*
X172261714Y-94685142D01*
X172190285Y-94542285D01*
X172190285Y-93970857D01*
X172261714Y-93828000D01*
X172404571Y-93756571D01*
X172690285Y-93756571D01*
X172833142Y-93828000D01*
X172904571Y-93970857D01*
X172904571Y-94113714D01*
X172190285Y-94256571D01*
X174476000Y-93256571D02*
X174976000Y-94756571D01*
X175476000Y-93256571D01*
X175976000Y-94613714D02*
X176047428Y-94685142D01*
X175976000Y-94756571D01*
X175904571Y-94685142D01*
X175976000Y-94613714D01*
X175976000Y-94756571D01*
X178618857Y-94756571D02*
X177761714Y-94756571D01*
X178190285Y-94756571D02*
X178190285Y-93256571D01*
X178047428Y-93470857D01*
X177904571Y-93613714D01*
X177761714Y-93685142D01*
X179261714Y-94613714D02*
X179333142Y-94685142D01*
X179261714Y-94756571D01*
X179190285Y-94685142D01*
X179261714Y-94613714D01*
X179261714Y-94756571D01*
X180261714Y-93256571D02*
X180404571Y-93256571D01*
X180547428Y-93328000D01*
X180618857Y-93399428D01*
X180690285Y-93542285D01*
X180761714Y-93828000D01*
X180761714Y-94185142D01*
X180690285Y-94470857D01*
X180618857Y-94613714D01*
X180547428Y-94685142D01*
X180404571Y-94756571D01*
X180261714Y-94756571D01*
X180118857Y-94685142D01*
X180047428Y-94613714D01*
X179976000Y-94470857D01*
X179904571Y-94185142D01*
X179904571Y-93828000D01*
X179976000Y-93542285D01*
X180047428Y-93399428D01*
X180118857Y-93328000D01*
X180261714Y-93256571D01*
X181690285Y-93256571D02*
X181833142Y-93256571D01*
X181976000Y-93328000D01*
X182047428Y-93399428D01*
X182118857Y-93542285D01*
X182190285Y-93828000D01*
X182190285Y-94185142D01*
X182118857Y-94470857D01*
X182047428Y-94613714D01*
X181976000Y-94685142D01*
X181833142Y-94756571D01*
X181690285Y-94756571D01*
X181547428Y-94685142D01*
X181476000Y-94613714D01*
X181404571Y-94470857D01*
X181333142Y-94185142D01*
X181333142Y-93828000D01*
X181404571Y-93542285D01*
X181476000Y-93399428D01*
X181547428Y-93328000D01*
X181690285Y-93256571D01*
X164654571Y-96878000D02*
X165368857Y-96878000D01*
X164511714Y-97306571D02*
X165011714Y-95806571D01*
X165511714Y-97306571D01*
X165868857Y-96306571D02*
X166226000Y-97306571D01*
X166583142Y-96306571D01*
X167154571Y-97306571D02*
X167154571Y-96306571D01*
X167154571Y-96592285D02*
X167226000Y-96449428D01*
X167297428Y-96378000D01*
X167440285Y-96306571D01*
X167583142Y-96306571D01*
X168083142Y-97306571D02*
X168083142Y-96306571D01*
X168083142Y-95806571D02*
X168011714Y-95878000D01*
X168083142Y-95949428D01*
X168154571Y-95878000D01*
X168083142Y-95806571D01*
X168083142Y-95949428D01*
X169011714Y-97306571D02*
X168868857Y-97235142D01*
X168797428Y-97092285D01*
X168797428Y-95806571D01*
X170654571Y-95949428D02*
X170726000Y-95878000D01*
X170868857Y-95806571D01*
X171226000Y-95806571D01*
X171368857Y-95878000D01*
X171440285Y-95949428D01*
X171511714Y-96092285D01*
X171511714Y-96235142D01*
X171440285Y-96449428D01*
X170583142Y-97306571D01*
X171511714Y-97306571D01*
X172440285Y-95806571D02*
X172583142Y-95806571D01*
X172726000Y-95878000D01*
X172797428Y-95949428D01*
X172868857Y-96092285D01*
X172940285Y-96378000D01*
X172940285Y-96735142D01*
X172868857Y-97020857D01*
X172797428Y-97163714D01*
X172726000Y-97235142D01*
X172583142Y-97306571D01*
X172440285Y-97306571D01*
X172297428Y-97235142D01*
X172226000Y-97163714D01*
X172154571Y-97020857D01*
X172083142Y-96735142D01*
X172083142Y-96378000D01*
X172154571Y-96092285D01*
X172226000Y-95949428D01*
X172297428Y-95878000D01*
X172440285Y-95806571D01*
X174368857Y-97306571D02*
X173511714Y-97306571D01*
X173940285Y-97306571D02*
X173940285Y-95806571D01*
X173797428Y-96020857D01*
X173654571Y-96163714D01*
X173511714Y-96235142D01*
X174868857Y-95806571D02*
X175868857Y-95806571D01*
X175226000Y-97306571D01*
D12*
X130768600Y-83904999D02*
X130768600Y-83904999D01*
X130768600Y-85098799D02*
X130768600Y-83904999D01*
X128228600Y-85098799D02*
X130768600Y-85098799D01*
X128228600Y-83904999D02*
X128228600Y-85098799D01*
X129498600Y-83904999D02*
X128228600Y-83904999D01*
X121675400Y-79536200D02*
X121675400Y-79536200D01*
X121675400Y-83904999D02*
X121675400Y-79536200D01*
X137321800Y-83904999D02*
X121675400Y-83904999D01*
X137321800Y-79536200D02*
X137321800Y-83904999D01*
X121675400Y-79536200D02*
X137321800Y-79536200D01*
X147270000Y-83904999D02*
X147270000Y-83904999D01*
X147270000Y-85098799D02*
X147270000Y-83904999D01*
X144730000Y-85098799D02*
X147270000Y-85098799D01*
X144730000Y-83904999D02*
X144730000Y-85098799D01*
X139675400Y-79536200D02*
X139675400Y-79536200D01*
X139675400Y-83904999D02*
X139675400Y-79536200D01*
X152324600Y-83904999D02*
X139675400Y-83904999D01*
X152324600Y-79536200D02*
X152324600Y-83904999D01*
X139675400Y-79536200D02*
X152324600Y-79536200D01*
X179776400Y-106778000D02*
X179776400Y-106778000D01*
X178582600Y-106778000D02*
X179776400Y-106778000D01*
X178582600Y-105508000D02*
X178582600Y-106778000D01*
X178582600Y-104238000D02*
X178582600Y-105508000D01*
X179776400Y-104238000D02*
X178582600Y-104238000D01*
X184145199Y-100682000D02*
X184145199Y-100682000D01*
X179776400Y-100682000D02*
X184145199Y-100682000D01*
X179776400Y-110334000D02*
X179776400Y-100682000D01*
X184145199Y-110334000D02*
X179776400Y-110334000D01*
X184145199Y-110334000D02*
X184145199Y-110334000D01*
X184145199Y-110334000D02*
X184145199Y-110334000D01*
X184145199Y-100682000D02*
X184145199Y-110334000D01*
X179776400Y-117954000D02*
X179776400Y-117954000D01*
X178582600Y-117954000D02*
X179776400Y-117954000D01*
X178582600Y-116684000D02*
X178582600Y-117954000D01*
X178582600Y-115414000D02*
X178582600Y-116684000D01*
X179776400Y-115414000D02*
X178582600Y-115414000D01*
X184145199Y-111858000D02*
X184145199Y-111858000D01*
X179776400Y-111858000D02*
X184145199Y-111858000D01*
X179776400Y-121510000D02*
X179776400Y-111858000D01*
X184145199Y-121510000D02*
X179776400Y-121510000D01*
X184145199Y-121510000D02*
X184145199Y-121510000D01*
X184145199Y-121510000D02*
X184145199Y-121510000D01*
X184145199Y-111858000D02*
X184145199Y-121510000D01*
X140000000Y-126428500D02*
X140000000Y-126428500D01*
X138603000Y-126428500D02*
X140000000Y-126428500D01*
X138603000Y-127571500D02*
X138603000Y-126428500D01*
X140000000Y-127571500D02*
X138603000Y-127571500D01*
X147365999Y-122174000D02*
X140000000Y-122174000D01*
X140000000Y-122174000D02*
X140000000Y-131826000D01*
X140000000Y-131826000D02*
X147365999Y-131826000D01*
X147365999Y-131826000D02*
X147365999Y-122174000D01*
X147365999Y-122174000D02*
X147365999Y-122174000D01*
X101500000Y-126000000D02*
X101500000Y-114000000D01*
X95000000Y-114000000D02*
X101500000Y-114000000D01*
X95000000Y-114000000D02*
X90500000Y-114000000D01*
X90500000Y-114000000D02*
X90500000Y-126000000D01*
X90500000Y-126000000D02*
X101500000Y-126000000D01*
X113950000Y-107250000D02*
X113950000Y-109000000D01*
X119255000Y-107250000D02*
X119255000Y-101750000D01*
X113745000Y-107250000D02*
X113745000Y-101750000D01*
X119255000Y-107250000D02*
X118955000Y-107250000D01*
X119255000Y-101750000D02*
X118955000Y-101750000D01*
X113745000Y-101750000D02*
X114045000Y-101750000D01*
X113745000Y-107250000D02*
X113950000Y-107250000D01*
D13*
X97500000Y-92650000D02*
X96500000Y-92650000D01*
X96500000Y-94350000D02*
X97500000Y-94350000D01*
D12*
X93600000Y-98525000D02*
X99400000Y-98525000D01*
X104300000Y-98525000D02*
X102500000Y-98525000D01*
X104300000Y-110475000D02*
X104300000Y-98525000D01*
X102500000Y-110475000D02*
X101900000Y-110475000D01*
X93600000Y-110475000D02*
X100100000Y-110475000D01*
D13*
X133230000Y-124980000D02*
X133990000Y-124210000D01*
X133230000Y-124980000D02*
X133230000Y-128790000D01*
X137800000Y-124980000D02*
X137040000Y-124210000D01*
X137800000Y-124980000D02*
X137800000Y-128790000D01*
X137040000Y-124210000D02*
X136630000Y-124210000D01*
X133990000Y-124210000D02*
X134400000Y-124210000D01*
X133230000Y-128790000D02*
X134400000Y-128790000D01*
X137800000Y-128790000D02*
X136630000Y-128790000D01*
X171000000Y-117650000D02*
X170000000Y-117650000D01*
X170000000Y-119350000D02*
X171000000Y-119350000D01*
X171742000Y-106182000D02*
X170742000Y-106182000D01*
X170742000Y-107882000D02*
X171742000Y-107882000D01*
X170742000Y-104580000D02*
X171742000Y-104580000D01*
X171742000Y-102880000D02*
X170742000Y-102880000D01*
X96500000Y-91850000D02*
X97500000Y-91850000D01*
X97500000Y-90150000D02*
X96500000Y-90150000D01*
X159500000Y-100150000D02*
X158500000Y-100150000D01*
X158500000Y-101850000D02*
X159500000Y-101850000D01*
X112656000Y-104992000D02*
X112656000Y-103992000D01*
X110956000Y-103992000D02*
X110956000Y-104992000D01*
D12*
X150540096Y-91085112D02*
G75*
G03X153565000Y-91070000I1524904J-2484888D01*
G01*
X150565000Y-91070000D02*
X153565000Y-91070000D01*
X154582936Y-93570000D02*
G75*
G03X154582936Y-93570000I-2517936J0D01*
G01*
X154517936Y-87270000D02*
G75*
G03X154517936Y-87270000I-2517936J0D01*
G01*
X150500000Y-84770000D02*
X153500000Y-84770000D01*
X150475096Y-84785112D02*
G75*
G03X153500000Y-84770000I1524904J-2484888D01*
G01*
D13*
X123661522Y-91661522D02*
G75*
G03X125500000Y-96100000I1838478J-1838478D01*
G01*
X127338478Y-91661522D02*
G75*
G02X125500000Y-96100000I-1838478J-1838478D01*
G01*
X127300000Y-91650000D02*
X123700000Y-91650000D01*
X119900000Y-87620000D02*
X121100000Y-87620000D01*
X121100000Y-89380000D02*
X119900000Y-89380000D01*
X104380000Y-119400000D02*
X104380000Y-120600000D01*
X102620000Y-120600000D02*
X102620000Y-119400000D01*
X107380000Y-122400000D02*
X107380000Y-123600000D01*
X105620000Y-123600000D02*
X105620000Y-122400000D01*
X109880000Y-122400000D02*
X109880000Y-123600000D01*
X108120000Y-123600000D02*
X108120000Y-122400000D01*
X120880000Y-127900000D02*
X120880000Y-129100000D01*
X119120000Y-129100000D02*
X119120000Y-127900000D01*
X120880000Y-122400000D02*
X120880000Y-123600000D01*
X119120000Y-123600000D02*
X119120000Y-122400000D01*
X123620000Y-123600000D02*
X123620000Y-122400000D01*
X125380000Y-122400000D02*
X125380000Y-123600000D01*
X125380000Y-127900000D02*
X125380000Y-129100000D01*
X123620000Y-129100000D02*
X123620000Y-127900000D01*
X118156000Y-92180000D02*
X115496000Y-92180000D01*
X115496000Y-92180000D02*
X115496000Y-94960000D01*
X115496000Y-94960000D02*
X118156000Y-94960000D01*
X118156000Y-94960000D02*
X118156000Y-92180000D01*
X119426000Y-92180000D02*
X120816000Y-92180000D01*
X120816000Y-92180000D02*
X120816000Y-93570000D01*
D12*
X105950000Y-117550000D02*
X105950000Y-99770000D01*
X154210000Y-120090000D02*
X108490000Y-120090000D01*
X156750000Y-99770000D02*
X156750000Y-117550000D01*
X108490000Y-97230000D02*
X154210000Y-97230000D01*
X105950000Y-117550000D02*
G75*
G03X108490000Y-120090000I2540000J0D01*
G01*
X108490000Y-97230000D02*
G75*
G03X105950000Y-99770000I0J-2540000D01*
G01*
X154210000Y-120090000D02*
G75*
G03X156750000Y-117550000I0J2540000D01*
G01*
X156750000Y-99770000D02*
G75*
G03X154210000Y-97230000I-2540000J0D01*
G01*
X167925000Y-115075000D02*
X167975000Y-115075000D01*
X167925000Y-110925000D02*
X168070000Y-110925000D01*
X173075000Y-110925000D02*
X172930000Y-110925000D01*
X173075000Y-115075000D02*
X172930000Y-115075000D01*
X167925000Y-115075000D02*
X167925000Y-110925000D01*
X173075000Y-115075000D02*
X173075000Y-110925000D01*
X167975000Y-115075000D02*
X167975000Y-116475000D01*
X162375000Y-114450000D02*
X162375000Y-114200000D01*
X154625000Y-114450000D02*
X154625000Y-114105000D01*
X154625000Y-102550000D02*
X154625000Y-102895000D01*
X162375000Y-102550000D02*
X162375000Y-102895000D01*
X162375000Y-114450000D02*
X154625000Y-114450000D01*
X162375000Y-102550000D02*
X154625000Y-102550000D01*
X162375000Y-114200000D02*
X164200000Y-114200000D01*
D14*
X168314500Y-104817500D02*
X168314500Y-105817500D01*
X165914500Y-105817500D02*
X165914500Y-104817500D01*
D12*
X119175000Y-82465000D02*
G75*
G03X119175000Y-82465000I-11175000J0D01*
G01*
X118300000Y-82465000D02*
G75*
G03X118300000Y-82465000I-10300000J0D01*
G01*
X111750000Y-95689999D02*
X104250000Y-95689999D01*
X104250000Y-95689999D02*
X104250000Y-93640000D01*
X104250000Y-93640000D02*
X104250000Y-93640000D01*
X111750000Y-95689999D02*
X111750000Y-93640000D01*
X111750000Y-93640000D02*
X111750000Y-93640000D01*
X111750000Y-93640000D02*
X111750000Y-93640000D01*
X111750000Y-93640000D02*
X111750000Y-92990000D01*
X104250000Y-93640000D02*
X104250000Y-92990000D01*
D13*
X160920000Y-80600000D02*
X160920000Y-79980000D01*
X159320000Y-80600000D02*
X160920000Y-80600000D01*
X159320000Y-79980000D02*
X159320000Y-80600000D01*
X158380000Y-80600000D02*
X158380000Y-79980000D01*
X156780000Y-80600000D02*
X158380000Y-80600000D01*
X156780000Y-79980000D02*
X156780000Y-80600000D01*
X159870000Y-85980000D02*
X159870000Y-84980000D01*
X157830000Y-85980000D02*
X157830000Y-84980000D01*
X159870000Y-84550000D02*
X160120000Y-84980000D01*
X157830000Y-84550000D02*
X159870000Y-84550000D01*
X157580000Y-84980000D02*
X157830000Y-84550000D01*
X160120000Y-84980000D02*
X160120000Y-85980000D01*
X157580000Y-84980000D02*
X160120000Y-84980000D01*
X157580000Y-85980000D02*
X157580000Y-84980000D01*
X161490000Y-79980000D02*
X156210000Y-79980000D01*
X161490000Y-85980000D02*
X161490000Y-79980000D01*
X156210000Y-85980000D02*
X161490000Y-85980000D01*
X156210000Y-79980000D02*
X156210000Y-85980000D01*
X168370000Y-130020000D02*
X168370000Y-124020000D01*
X168370000Y-124020000D02*
X163090000Y-124020000D01*
X163090000Y-124020000D02*
X163090000Y-130020000D01*
X163090000Y-130020000D02*
X168370000Y-130020000D01*
X167000000Y-124020000D02*
X167000000Y-125020000D01*
X167000000Y-125020000D02*
X164460000Y-125020000D01*
X164460000Y-125020000D02*
X164460000Y-124020000D01*
X167000000Y-125020000D02*
X166750000Y-125450000D01*
X166750000Y-125450000D02*
X164710000Y-125450000D01*
X164710000Y-125450000D02*
X164460000Y-125020000D01*
X166750000Y-124020000D02*
X166750000Y-125020000D01*
X164710000Y-124020000D02*
X164710000Y-125020000D01*
X167800000Y-130020000D02*
X167800000Y-129400000D01*
X167800000Y-129400000D02*
X166200000Y-129400000D01*
X166200000Y-129400000D02*
X166200000Y-130020000D01*
X165260000Y-130020000D02*
X165260000Y-129400000D01*
X165260000Y-129400000D02*
X163660000Y-129400000D01*
X163660000Y-129400000D02*
X163660000Y-130020000D01*
X180870000Y-130020000D02*
X180870000Y-124020000D01*
X180870000Y-124020000D02*
X175590000Y-124020000D01*
X175590000Y-124020000D02*
X175590000Y-130020000D01*
X175590000Y-130020000D02*
X180870000Y-130020000D01*
X179500000Y-124020000D02*
X179500000Y-125020000D01*
X179500000Y-125020000D02*
X176960000Y-125020000D01*
X176960000Y-125020000D02*
X176960000Y-124020000D01*
X179500000Y-125020000D02*
X179250000Y-125450000D01*
X179250000Y-125450000D02*
X177210000Y-125450000D01*
X177210000Y-125450000D02*
X176960000Y-125020000D01*
X179250000Y-124020000D02*
X179250000Y-125020000D01*
X177210000Y-124020000D02*
X177210000Y-125020000D01*
X180300000Y-130020000D02*
X180300000Y-129400000D01*
X180300000Y-129400000D02*
X178700000Y-129400000D01*
X178700000Y-129400000D02*
X178700000Y-130020000D01*
X177760000Y-130020000D02*
X177760000Y-129400000D01*
X177760000Y-129400000D02*
X176160000Y-129400000D01*
X176160000Y-129400000D02*
X176160000Y-130020000D01*
X163670000Y-79980000D02*
X163670000Y-85980000D01*
X163670000Y-85980000D02*
X168950000Y-85980000D01*
X168950000Y-85980000D02*
X168950000Y-79980000D01*
X168950000Y-79980000D02*
X163670000Y-79980000D01*
X165040000Y-85980000D02*
X165040000Y-84980000D01*
X165040000Y-84980000D02*
X167580000Y-84980000D01*
X167580000Y-84980000D02*
X167580000Y-85980000D01*
X165040000Y-84980000D02*
X165290000Y-84550000D01*
X165290000Y-84550000D02*
X167330000Y-84550000D01*
X167330000Y-84550000D02*
X167580000Y-84980000D01*
X165290000Y-85980000D02*
X165290000Y-84980000D01*
X167330000Y-85980000D02*
X167330000Y-84980000D01*
X164240000Y-79980000D02*
X164240000Y-80600000D01*
X164240000Y-80600000D02*
X165840000Y-80600000D01*
X165840000Y-80600000D02*
X165840000Y-79980000D01*
X166780000Y-79980000D02*
X166780000Y-80600000D01*
X166780000Y-80600000D02*
X168380000Y-80600000D01*
X168380000Y-80600000D02*
X168380000Y-79980000D01*
X97500000Y-95150000D02*
X96500000Y-95150000D01*
X96500000Y-96850000D02*
X97500000Y-96850000D01*
X148364184Y-77122795D02*
G75*
G02X147840000Y-77850000I-2324184J1122795D01*
G01*
X148396400Y-74901193D02*
G75*
G03X146040000Y-73400000I-2356400J-1098807D01*
G01*
X143683600Y-74901193D02*
G75*
G02X146040000Y-73400000I2356400J-1098807D01*
G01*
X143715816Y-77122795D02*
G75*
G03X144240000Y-77850000I2324184J1122795D01*
G01*
X144240000Y-77850000D02*
X147840000Y-77850000D01*
X180920000Y-80600000D02*
X180920000Y-79980000D01*
X179320000Y-80600000D02*
X180920000Y-80600000D01*
X179320000Y-79980000D02*
X179320000Y-80600000D01*
X178380000Y-80600000D02*
X178380000Y-79980000D01*
X176780000Y-80600000D02*
X178380000Y-80600000D01*
X176780000Y-79980000D02*
X176780000Y-80600000D01*
X175840000Y-80600000D02*
X175840000Y-79980000D01*
X174240000Y-80600000D02*
X175840000Y-80600000D01*
X174240000Y-79980000D02*
X174240000Y-80600000D01*
X173300000Y-80600000D02*
X173300000Y-79980000D01*
X171700000Y-80600000D02*
X173300000Y-80600000D01*
X171700000Y-79980000D02*
X171700000Y-80600000D01*
X179870000Y-85980000D02*
X179870000Y-84980000D01*
X172750000Y-85980000D02*
X172750000Y-84980000D01*
X179870000Y-84550000D02*
X180120000Y-84980000D01*
X172750000Y-84550000D02*
X179870000Y-84550000D01*
X172500000Y-84980000D02*
X172750000Y-84550000D01*
X180120000Y-84980000D02*
X180120000Y-85980000D01*
X172500000Y-84980000D02*
X180120000Y-84980000D01*
X172500000Y-85980000D02*
X172500000Y-84980000D01*
X181490000Y-79980000D02*
X171130000Y-79980000D01*
X181490000Y-85980000D02*
X181490000Y-79980000D01*
X171130000Y-85980000D02*
X181490000Y-85980000D01*
X171130000Y-79980000D02*
X171130000Y-85980000D01*
X104444000Y-133432000D02*
X103674000Y-132672000D01*
X104444000Y-133432000D02*
X108254000Y-133432000D01*
X104444000Y-128862000D02*
X103674000Y-129622000D01*
X104444000Y-128862000D02*
X108254000Y-128862000D01*
X103674000Y-129622000D02*
X103674000Y-130032000D01*
X103674000Y-132672000D02*
X103674000Y-132262000D01*
X108254000Y-133432000D02*
X108254000Y-132262000D01*
X108254000Y-128862000D02*
X108254000Y-130032000D01*
X131800000Y-128790000D02*
X130630000Y-128790000D01*
X127230000Y-128790000D02*
X128400000Y-128790000D01*
X127990000Y-124210000D02*
X128400000Y-124210000D01*
X131040000Y-124210000D02*
X130630000Y-124210000D01*
X131800000Y-124980000D02*
X131800000Y-128790000D01*
X131800000Y-124980000D02*
X131040000Y-124210000D01*
X127230000Y-124980000D02*
X127230000Y-128790000D01*
X127230000Y-124980000D02*
X127990000Y-124210000D01*
X111980000Y-130870000D02*
X117980000Y-130870000D01*
X117980000Y-130870000D02*
X117980000Y-123050000D01*
X117980000Y-123050000D02*
X111980000Y-123050000D01*
X111980000Y-123050000D02*
X111980000Y-130870000D01*
X117980000Y-129500000D02*
X116980000Y-129500000D01*
X116980000Y-129500000D02*
X116980000Y-124420000D01*
X116980000Y-124420000D02*
X117980000Y-124420000D01*
X116980000Y-129500000D02*
X116550000Y-129250000D01*
X116550000Y-129250000D02*
X116550000Y-124670000D01*
X116550000Y-124670000D02*
X116980000Y-124420000D01*
X117980000Y-129250000D02*
X116980000Y-129250000D01*
X117980000Y-124670000D02*
X116980000Y-124670000D01*
X111980000Y-130300000D02*
X112600000Y-130300000D01*
X112600000Y-130300000D02*
X112600000Y-128700000D01*
X112600000Y-128700000D02*
X111980000Y-128700000D01*
X111980000Y-127760000D02*
X112600000Y-127760000D01*
X112600000Y-127760000D02*
X112600000Y-126160000D01*
X112600000Y-126160000D02*
X111980000Y-126160000D01*
X111980000Y-125220000D02*
X112600000Y-125220000D01*
X112600000Y-125220000D02*
X112600000Y-123620000D01*
X112600000Y-123620000D02*
X111980000Y-123620000D01*
X140379000Y-95277000D02*
X140379000Y-94347000D01*
X140379000Y-92117000D02*
X140379000Y-93047000D01*
X140379000Y-92117000D02*
X137219000Y-92117000D01*
X140379000Y-95277000D02*
X138919000Y-95277000D01*
X140260000Y-90080000D02*
X138800000Y-90080000D01*
X140260000Y-86920000D02*
X137100000Y-86920000D01*
X140260000Y-86920000D02*
X140260000Y-87850000D01*
X140260000Y-90080000D02*
X140260000Y-89150000D01*
X149600000Y-123160000D02*
X148980000Y-123160000D01*
X149600000Y-124760000D02*
X149600000Y-123160000D01*
X148980000Y-124760000D02*
X149600000Y-124760000D01*
X149600000Y-125700000D02*
X148980000Y-125700000D01*
X149600000Y-127300000D02*
X149600000Y-125700000D01*
X148980000Y-127300000D02*
X149600000Y-127300000D01*
X149600000Y-128240000D02*
X148980000Y-128240000D01*
X149600000Y-129840000D02*
X149600000Y-128240000D01*
X148980000Y-129840000D02*
X149600000Y-129840000D01*
X154980000Y-124210000D02*
X153980000Y-124210000D01*
X154980000Y-128790000D02*
X153980000Y-128790000D01*
X153550000Y-124210000D02*
X153980000Y-123960000D01*
X153550000Y-128790000D02*
X153550000Y-124210000D01*
X153980000Y-129040000D02*
X153550000Y-128790000D01*
X153980000Y-123960000D02*
X154980000Y-123960000D01*
X153980000Y-129040000D02*
X153980000Y-123960000D01*
X154980000Y-129040000D02*
X153980000Y-129040000D01*
X148980000Y-122590000D02*
X148980000Y-130410000D01*
X154980000Y-122590000D02*
X148980000Y-122590000D01*
X154980000Y-130410000D02*
X154980000Y-122590000D01*
X148980000Y-130410000D02*
X154980000Y-130410000D01*
D12*
X121926571Y-85513380D02*
X121926571Y-84513380D01*
X122355142Y-84608619D02*
X122402761Y-84561000D01*
X122498000Y-84513380D01*
X122736095Y-84513380D01*
X122831333Y-84561000D01*
X122878952Y-84608619D01*
X122926571Y-84703857D01*
X122926571Y-84799095D01*
X122878952Y-84941952D01*
X122307523Y-85513380D01*
X122926571Y-85513380D01*
X123926571Y-85418142D02*
X123878952Y-85465761D01*
X123736095Y-85513380D01*
X123640857Y-85513380D01*
X123498000Y-85465761D01*
X123402761Y-85370523D01*
X123355142Y-85275285D01*
X123307523Y-85084809D01*
X123307523Y-84941952D01*
X123355142Y-84751476D01*
X123402761Y-84656238D01*
X123498000Y-84561000D01*
X123640857Y-84513380D01*
X123736095Y-84513380D01*
X123878952Y-84561000D01*
X123926571Y-84608619D01*
X124355142Y-85132428D02*
X125117047Y-85132428D01*
X126117047Y-85513380D02*
X125545619Y-85513380D01*
X125831333Y-85513380D02*
X125831333Y-84513380D01*
X125736095Y-84656238D01*
X125640857Y-84751476D01*
X125545619Y-84799095D01*
X140143095Y-84513380D02*
X140333571Y-84513380D01*
X140428809Y-84561000D01*
X140524047Y-84656238D01*
X140571666Y-84846714D01*
X140571666Y-85180047D01*
X140524047Y-85370523D01*
X140428809Y-85465761D01*
X140333571Y-85513380D01*
X140143095Y-85513380D01*
X140047857Y-85465761D01*
X139952619Y-85370523D01*
X139905000Y-85180047D01*
X139905000Y-84846714D01*
X139952619Y-84656238D01*
X140047857Y-84561000D01*
X140143095Y-84513380D01*
X140905000Y-84513380D02*
X141143095Y-85513380D01*
X141333571Y-84799095D01*
X141524047Y-85513380D01*
X141762142Y-84513380D01*
X142143095Y-85132428D02*
X142905000Y-85132428D01*
X143905000Y-85513380D02*
X143333571Y-85513380D01*
X143619285Y-85513380D02*
X143619285Y-84513380D01*
X143524047Y-84656238D01*
X143428809Y-84751476D01*
X143333571Y-84799095D01*
X185696142Y-107119095D02*
X185743761Y-107166714D01*
X185791380Y-107309571D01*
X185791380Y-107404809D01*
X185743761Y-107547666D01*
X185648523Y-107642904D01*
X185553285Y-107690523D01*
X185362809Y-107738142D01*
X185219952Y-107738142D01*
X185029476Y-107690523D01*
X184934238Y-107642904D01*
X184839000Y-107547666D01*
X184791380Y-107404809D01*
X184791380Y-107309571D01*
X184839000Y-107166714D01*
X184886619Y-107119095D01*
X185505666Y-106738142D02*
X185505666Y-106261952D01*
X185791380Y-106833380D02*
X184791380Y-106500047D01*
X185791380Y-106166714D01*
X185791380Y-105833380D02*
X184791380Y-105833380D01*
X185791380Y-105261952D01*
X184791380Y-105261952D01*
X185410428Y-104785761D02*
X185410428Y-104023857D01*
X184886619Y-103595285D02*
X184839000Y-103547666D01*
X184791380Y-103452428D01*
X184791380Y-103214333D01*
X184839000Y-103119095D01*
X184886619Y-103071476D01*
X184981857Y-103023857D01*
X185077095Y-103023857D01*
X185219952Y-103071476D01*
X185791380Y-103642904D01*
X185791380Y-103023857D01*
X185696142Y-118422095D02*
X185743761Y-118469714D01*
X185791380Y-118612571D01*
X185791380Y-118707809D01*
X185743761Y-118850666D01*
X185648523Y-118945904D01*
X185553285Y-118993523D01*
X185362809Y-119041142D01*
X185219952Y-119041142D01*
X185029476Y-118993523D01*
X184934238Y-118945904D01*
X184839000Y-118850666D01*
X184791380Y-118707809D01*
X184791380Y-118612571D01*
X184839000Y-118469714D01*
X184886619Y-118422095D01*
X185505666Y-118041142D02*
X185505666Y-117564952D01*
X185791380Y-118136380D02*
X184791380Y-117803047D01*
X185791380Y-117469714D01*
X185791380Y-117136380D02*
X184791380Y-117136380D01*
X185791380Y-116564952D01*
X184791380Y-116564952D01*
X185410428Y-116088761D02*
X185410428Y-115326857D01*
X185791380Y-114326857D02*
X185791380Y-114898285D01*
X185791380Y-114612571D02*
X184791380Y-114612571D01*
X184934238Y-114707809D01*
X185029476Y-114803047D01*
X185077095Y-114898285D01*
X141254428Y-133773380D02*
X141254428Y-132773380D01*
X141635380Y-132773380D01*
X141730619Y-132821000D01*
X141778238Y-132868619D01*
X141825857Y-132963857D01*
X141825857Y-133106714D01*
X141778238Y-133201952D01*
X141730619Y-133249571D01*
X141635380Y-133297190D01*
X141254428Y-133297190D01*
X142159190Y-132773380D02*
X142397285Y-133773380D01*
X142587761Y-133059095D01*
X142778238Y-133773380D01*
X143016333Y-132773380D01*
X143968714Y-133773380D02*
X143635380Y-133297190D01*
X143397285Y-133773380D02*
X143397285Y-132773380D01*
X143778238Y-132773380D01*
X143873476Y-132821000D01*
X143921095Y-132868619D01*
X143968714Y-132963857D01*
X143968714Y-133106714D01*
X143921095Y-133201952D01*
X143873476Y-133249571D01*
X143778238Y-133297190D01*
X143397285Y-133297190D01*
X144397285Y-133392428D02*
X145159190Y-133392428D01*
X146159190Y-133773380D02*
X145587761Y-133773380D01*
X145873476Y-133773380D02*
X145873476Y-132773380D01*
X145778238Y-132916238D01*
X145683000Y-133011476D01*
X145587761Y-133059095D01*
X94764333Y-127455142D02*
X94716714Y-127502761D01*
X94573857Y-127550380D01*
X94478619Y-127550380D01*
X94335761Y-127502761D01*
X94240523Y-127407523D01*
X94192904Y-127312285D01*
X94145285Y-127121809D01*
X94145285Y-126978952D01*
X94192904Y-126788476D01*
X94240523Y-126693238D01*
X94335761Y-126598000D01*
X94478619Y-126550380D01*
X94573857Y-126550380D01*
X94716714Y-126598000D01*
X94764333Y-126645619D01*
X95050047Y-126550380D02*
X95621476Y-126550380D01*
X95335761Y-127550380D02*
X95335761Y-126550380D01*
X95954809Y-127169428D02*
X96716714Y-127169428D01*
X97716714Y-127550380D02*
X97145285Y-127550380D01*
X97431000Y-127550380D02*
X97431000Y-126550380D01*
X97335761Y-126693238D01*
X97240523Y-126788476D01*
X97145285Y-126836095D01*
X120021380Y-105507904D02*
X120830904Y-105507904D01*
X120926142Y-105460285D01*
X120973761Y-105412666D01*
X121021380Y-105317428D01*
X121021380Y-105126952D01*
X120973761Y-105031714D01*
X120926142Y-104984095D01*
X120830904Y-104936476D01*
X120021380Y-104936476D01*
X120021380Y-104031714D02*
X120021380Y-104222190D01*
X120069000Y-104317428D01*
X120116619Y-104365047D01*
X120259476Y-104460285D01*
X120449952Y-104507904D01*
X120830904Y-104507904D01*
X120926142Y-104460285D01*
X120973761Y-104412666D01*
X121021380Y-104317428D01*
X121021380Y-104126952D01*
X120973761Y-104031714D01*
X120926142Y-103984095D01*
X120830904Y-103936476D01*
X120592809Y-103936476D01*
X120497571Y-103984095D01*
X120449952Y-104031714D01*
X120402333Y-104126952D01*
X120402333Y-104317428D01*
X120449952Y-104412666D01*
X120497571Y-104460285D01*
X120592809Y-104507904D01*
X93224333Y-93800142D02*
X93176714Y-93847761D01*
X93033857Y-93895380D01*
X92938619Y-93895380D01*
X92795761Y-93847761D01*
X92700523Y-93752523D01*
X92652904Y-93657285D01*
X92605285Y-93466809D01*
X92605285Y-93323952D01*
X92652904Y-93133476D01*
X92700523Y-93038238D01*
X92795761Y-92943000D01*
X92938619Y-92895380D01*
X93033857Y-92895380D01*
X93176714Y-92943000D01*
X93224333Y-92990619D01*
X94129095Y-92895380D02*
X93652904Y-92895380D01*
X93605285Y-93371571D01*
X93652904Y-93323952D01*
X93748142Y-93276333D01*
X93986238Y-93276333D01*
X94081476Y-93323952D01*
X94129095Y-93371571D01*
X94176714Y-93466809D01*
X94176714Y-93704904D01*
X94129095Y-93800142D01*
X94081476Y-93847761D01*
X93986238Y-93895380D01*
X93748142Y-93895380D01*
X93652904Y-93847761D01*
X93605285Y-93800142D01*
X95089857Y-111770714D02*
X95089857Y-112437380D01*
X94661285Y-111770714D02*
X94661285Y-112294523D01*
X94708904Y-112389761D01*
X94804142Y-112437380D01*
X94947000Y-112437380D01*
X95042238Y-112389761D01*
X95089857Y-112342142D01*
X95518428Y-112389761D02*
X95661285Y-112437380D01*
X95899380Y-112437380D01*
X95994619Y-112389761D01*
X96042238Y-112342142D01*
X96089857Y-112246904D01*
X96089857Y-112151666D01*
X96042238Y-112056428D01*
X95994619Y-112008809D01*
X95899380Y-111961190D01*
X95708904Y-111913571D01*
X95613666Y-111865952D01*
X95566047Y-111818333D01*
X95518428Y-111723095D01*
X95518428Y-111627857D01*
X95566047Y-111532619D01*
X95613666Y-111485000D01*
X95708904Y-111437380D01*
X95947000Y-111437380D01*
X96089857Y-111485000D01*
X96518428Y-112437380D02*
X96518428Y-111437380D01*
X96756523Y-111437380D01*
X96899380Y-111485000D01*
X96994619Y-111580238D01*
X97042238Y-111675476D01*
X97089857Y-111865952D01*
X97089857Y-112008809D01*
X97042238Y-112199285D01*
X96994619Y-112294523D01*
X96899380Y-112389761D01*
X96756523Y-112437380D01*
X96518428Y-112437380D01*
X97518428Y-112056428D02*
X98280333Y-112056428D01*
X99280333Y-112437380D02*
X98708904Y-112437380D01*
X98994619Y-112437380D02*
X98994619Y-111437380D01*
X98899380Y-111580238D01*
X98804142Y-111675476D01*
X98708904Y-111723095D01*
X134785142Y-131392142D02*
X134737523Y-131439761D01*
X134594666Y-131487380D01*
X134499428Y-131487380D01*
X134356571Y-131439761D01*
X134261333Y-131344523D01*
X134213714Y-131249285D01*
X134166095Y-131058809D01*
X134166095Y-130915952D01*
X134213714Y-130725476D01*
X134261333Y-130630238D01*
X134356571Y-130535000D01*
X134499428Y-130487380D01*
X134594666Y-130487380D01*
X134737523Y-130535000D01*
X134785142Y-130582619D01*
X135737523Y-131487380D02*
X135166095Y-131487380D01*
X135451809Y-131487380D02*
X135451809Y-130487380D01*
X135356571Y-130630238D01*
X135261333Y-130725476D01*
X135166095Y-130773095D01*
X136689904Y-131487380D02*
X136118476Y-131487380D01*
X136404190Y-131487380D02*
X136404190Y-130487380D01*
X136308952Y-130630238D01*
X136213714Y-130725476D01*
X136118476Y-130773095D01*
X133581428Y-124100952D02*
X133581428Y-123339047D01*
X133962380Y-123720000D02*
X133200476Y-123720000D01*
X170333333Y-120607142D02*
X170285714Y-120654761D01*
X170142857Y-120702380D01*
X170047619Y-120702380D01*
X169904761Y-120654761D01*
X169809523Y-120559523D01*
X169761904Y-120464285D01*
X169714285Y-120273809D01*
X169714285Y-120130952D01*
X169761904Y-119940476D01*
X169809523Y-119845238D01*
X169904761Y-119750000D01*
X170047619Y-119702380D01*
X170142857Y-119702380D01*
X170285714Y-119750000D01*
X170333333Y-119797619D01*
X171285714Y-120702380D02*
X170714285Y-120702380D01*
X171000000Y-120702380D02*
X171000000Y-119702380D01*
X170904761Y-119845238D01*
X170809523Y-119940476D01*
X170714285Y-119988095D01*
X175075333Y-107613142D02*
X175027714Y-107660761D01*
X174884857Y-107708380D01*
X174789619Y-107708380D01*
X174646761Y-107660761D01*
X174551523Y-107565523D01*
X174503904Y-107470285D01*
X174456285Y-107279809D01*
X174456285Y-107136952D01*
X174503904Y-106946476D01*
X174551523Y-106851238D01*
X174646761Y-106756000D01*
X174789619Y-106708380D01*
X174884857Y-106708380D01*
X175027714Y-106756000D01*
X175075333Y-106803619D01*
X175456285Y-106803619D02*
X175503904Y-106756000D01*
X175599142Y-106708380D01*
X175837238Y-106708380D01*
X175932476Y-106756000D01*
X175980095Y-106803619D01*
X176027714Y-106898857D01*
X176027714Y-106994095D01*
X175980095Y-107136952D01*
X175408666Y-107708380D01*
X176027714Y-107708380D01*
X175075333Y-104359142D02*
X175027714Y-104406761D01*
X174884857Y-104454380D01*
X174789619Y-104454380D01*
X174646761Y-104406761D01*
X174551523Y-104311523D01*
X174503904Y-104216285D01*
X174456285Y-104025809D01*
X174456285Y-103882952D01*
X174503904Y-103692476D01*
X174551523Y-103597238D01*
X174646761Y-103502000D01*
X174789619Y-103454380D01*
X174884857Y-103454380D01*
X175027714Y-103502000D01*
X175075333Y-103549619D01*
X175408666Y-103454380D02*
X176027714Y-103454380D01*
X175694380Y-103835333D01*
X175837238Y-103835333D01*
X175932476Y-103882952D01*
X175980095Y-103930571D01*
X176027714Y-104025809D01*
X176027714Y-104263904D01*
X175980095Y-104359142D01*
X175932476Y-104406761D01*
X175837238Y-104454380D01*
X175551523Y-104454380D01*
X175456285Y-104406761D01*
X175408666Y-104359142D01*
X93224333Y-91387142D02*
X93176714Y-91434761D01*
X93033857Y-91482380D01*
X92938619Y-91482380D01*
X92795761Y-91434761D01*
X92700523Y-91339523D01*
X92652904Y-91244285D01*
X92605285Y-91053809D01*
X92605285Y-90910952D01*
X92652904Y-90720476D01*
X92700523Y-90625238D01*
X92795761Y-90530000D01*
X92938619Y-90482380D01*
X93033857Y-90482380D01*
X93176714Y-90530000D01*
X93224333Y-90577619D01*
X94081476Y-90815714D02*
X94081476Y-91482380D01*
X93843380Y-90434761D02*
X93605285Y-91149047D01*
X94224333Y-91149047D01*
X162833333Y-101357142D02*
X162785714Y-101404761D01*
X162642857Y-101452380D01*
X162547619Y-101452380D01*
X162404761Y-101404761D01*
X162309523Y-101309523D01*
X162261904Y-101214285D01*
X162214285Y-101023809D01*
X162214285Y-100880952D01*
X162261904Y-100690476D01*
X162309523Y-100595238D01*
X162404761Y-100500000D01*
X162547619Y-100452380D01*
X162642857Y-100452380D01*
X162785714Y-100500000D01*
X162833333Y-100547619D01*
X163690476Y-100452380D02*
X163500000Y-100452380D01*
X163404761Y-100500000D01*
X163357142Y-100547619D01*
X163261904Y-100690476D01*
X163214285Y-100880952D01*
X163214285Y-101261904D01*
X163261904Y-101357142D01*
X163309523Y-101404761D01*
X163404761Y-101452380D01*
X163595238Y-101452380D01*
X163690476Y-101404761D01*
X163738095Y-101357142D01*
X163785714Y-101261904D01*
X163785714Y-101023809D01*
X163738095Y-100928571D01*
X163690476Y-100880952D01*
X163595238Y-100833333D01*
X163404761Y-100833333D01*
X163309523Y-100880952D01*
X163261904Y-100928571D01*
X163214285Y-101023809D01*
X112163142Y-108158666D02*
X112210761Y-108206285D01*
X112258380Y-108349142D01*
X112258380Y-108444380D01*
X112210761Y-108587238D01*
X112115523Y-108682476D01*
X112020285Y-108730095D01*
X111829809Y-108777714D01*
X111686952Y-108777714D01*
X111496476Y-108730095D01*
X111401238Y-108682476D01*
X111306000Y-108587238D01*
X111258380Y-108444380D01*
X111258380Y-108349142D01*
X111306000Y-108206285D01*
X111353619Y-108158666D01*
X111258380Y-107825333D02*
X111258380Y-107158666D01*
X112258380Y-107587238D01*
X147262904Y-95419380D02*
X147262904Y-94419380D01*
X147501000Y-94419380D01*
X147643857Y-94467000D01*
X147739095Y-94562238D01*
X147786714Y-94657476D01*
X147834333Y-94847952D01*
X147834333Y-94990809D01*
X147786714Y-95181285D01*
X147739095Y-95276523D01*
X147643857Y-95371761D01*
X147501000Y-95419380D01*
X147262904Y-95419380D01*
X148786714Y-95419380D02*
X148215285Y-95419380D01*
X148501000Y-95419380D02*
X148501000Y-94419380D01*
X148405761Y-94562238D01*
X148310523Y-94657476D01*
X148215285Y-94705095D01*
X155359095Y-92498380D02*
X155359095Y-91498380D01*
X155930523Y-92498380D02*
X155501952Y-91926952D01*
X155930523Y-91498380D02*
X155359095Y-92069809D01*
X147135904Y-89323380D02*
X147135904Y-88323380D01*
X147374000Y-88323380D01*
X147516857Y-88371000D01*
X147612095Y-88466238D01*
X147659714Y-88561476D01*
X147707333Y-88751952D01*
X147707333Y-88894809D01*
X147659714Y-89085285D01*
X147612095Y-89180523D01*
X147516857Y-89275761D01*
X147374000Y-89323380D01*
X147135904Y-89323380D01*
X148088285Y-88418619D02*
X148135904Y-88371000D01*
X148231142Y-88323380D01*
X148469238Y-88323380D01*
X148564476Y-88371000D01*
X148612095Y-88418619D01*
X148659714Y-88513857D01*
X148659714Y-88609095D01*
X148612095Y-88751952D01*
X148040666Y-89323380D01*
X148659714Y-89323380D01*
X155359095Y-86148380D02*
X155359095Y-85148380D01*
X155930523Y-86148380D02*
X155501952Y-85576952D01*
X155930523Y-85148380D02*
X155359095Y-85719809D01*
X174504523Y-112469142D02*
X174456904Y-112516761D01*
X174314047Y-112564380D01*
X174218809Y-112564380D01*
X174075952Y-112516761D01*
X173980714Y-112421523D01*
X173933095Y-112326285D01*
X173885476Y-112135809D01*
X173885476Y-111992952D01*
X173933095Y-111802476D01*
X173980714Y-111707238D01*
X174075952Y-111612000D01*
X174218809Y-111564380D01*
X174314047Y-111564380D01*
X174456904Y-111612000D01*
X174504523Y-111659619D01*
X174933095Y-112564380D02*
X174933095Y-111564380D01*
X175504523Y-112564380D01*
X175504523Y-111564380D01*
X176266428Y-111564380D02*
X176266428Y-112278666D01*
X176218809Y-112421523D01*
X176123571Y-112516761D01*
X175980714Y-112564380D01*
X175885476Y-112564380D01*
X176742619Y-112183428D02*
X177504523Y-112183428D01*
X178504523Y-112564380D02*
X177933095Y-112564380D01*
X178218809Y-112564380D02*
X178218809Y-111564380D01*
X178123571Y-111707238D01*
X178028333Y-111802476D01*
X177933095Y-111850095D01*
X129617761Y-93990619D02*
X129522523Y-93943000D01*
X129427285Y-93847761D01*
X129284428Y-93704904D01*
X129189190Y-93657285D01*
X129093952Y-93657285D01*
X129141571Y-93895380D02*
X129046333Y-93847761D01*
X128951095Y-93752523D01*
X128903476Y-93562047D01*
X128903476Y-93228714D01*
X128951095Y-93038238D01*
X129046333Y-92943000D01*
X129141571Y-92895380D01*
X129332047Y-92895380D01*
X129427285Y-92943000D01*
X129522523Y-93038238D01*
X129570142Y-93228714D01*
X129570142Y-93562047D01*
X129522523Y-93752523D01*
X129427285Y-93847761D01*
X129332047Y-93895380D01*
X129141571Y-93895380D01*
X129903476Y-92895380D02*
X130522523Y-92895380D01*
X130189190Y-93276333D01*
X130332047Y-93276333D01*
X130427285Y-93323952D01*
X130474904Y-93371571D01*
X130522523Y-93466809D01*
X130522523Y-93704904D01*
X130474904Y-93800142D01*
X130427285Y-93847761D01*
X130332047Y-93895380D01*
X130046333Y-93895380D01*
X129951095Y-93847761D01*
X129903476Y-93800142D01*
X120333333Y-87252380D02*
X120000000Y-86776190D01*
X119761904Y-87252380D02*
X119761904Y-86252380D01*
X120142857Y-86252380D01*
X120238095Y-86300000D01*
X120285714Y-86347619D01*
X120333333Y-86442857D01*
X120333333Y-86585714D01*
X120285714Y-86680952D01*
X120238095Y-86728571D01*
X120142857Y-86776190D01*
X119761904Y-86776190D01*
X120666666Y-86252380D02*
X121285714Y-86252380D01*
X120952380Y-86633333D01*
X121095238Y-86633333D01*
X121190476Y-86680952D01*
X121238095Y-86728571D01*
X121285714Y-86823809D01*
X121285714Y-87061904D01*
X121238095Y-87157142D01*
X121190476Y-87204761D01*
X121095238Y-87252380D01*
X120809523Y-87252380D01*
X120714285Y-87204761D01*
X120666666Y-87157142D01*
X103952380Y-124642857D02*
X103476190Y-124976190D01*
X103952380Y-125214285D02*
X102952380Y-125214285D01*
X102952380Y-124833333D01*
X103000000Y-124738095D01*
X103047619Y-124690476D01*
X103142857Y-124642857D01*
X103285714Y-124642857D01*
X103380952Y-124690476D01*
X103428571Y-124738095D01*
X103476190Y-124833333D01*
X103476190Y-125214285D01*
X103952380Y-123690476D02*
X103952380Y-124261904D01*
X103952380Y-123976190D02*
X102952380Y-123976190D01*
X103095238Y-124071428D01*
X103190476Y-124166666D01*
X103238095Y-124261904D01*
X102952380Y-122785714D02*
X102952380Y-123261904D01*
X103428571Y-123309523D01*
X103380952Y-123261904D01*
X103333333Y-123166666D01*
X103333333Y-122928571D01*
X103380952Y-122833333D01*
X103428571Y-122785714D01*
X103523809Y-122738095D01*
X103761904Y-122738095D01*
X103857142Y-122785714D01*
X103904761Y-122833333D01*
X103952380Y-122928571D01*
X103952380Y-123166666D01*
X103904761Y-123261904D01*
X103857142Y-123309523D01*
X106952380Y-127642857D02*
X106476190Y-127976190D01*
X106952380Y-128214285D02*
X105952380Y-128214285D01*
X105952380Y-127833333D01*
X106000000Y-127738095D01*
X106047619Y-127690476D01*
X106142857Y-127642857D01*
X106285714Y-127642857D01*
X106380952Y-127690476D01*
X106428571Y-127738095D01*
X106476190Y-127833333D01*
X106476190Y-128214285D01*
X106952380Y-126690476D02*
X106952380Y-127261904D01*
X106952380Y-126976190D02*
X105952380Y-126976190D01*
X106095238Y-127071428D01*
X106190476Y-127166666D01*
X106238095Y-127261904D01*
X105952380Y-125833333D02*
X105952380Y-126023809D01*
X106000000Y-126119047D01*
X106047619Y-126166666D01*
X106190476Y-126261904D01*
X106380952Y-126309523D01*
X106761904Y-126309523D01*
X106857142Y-126261904D01*
X106904761Y-126214285D01*
X106952380Y-126119047D01*
X106952380Y-125928571D01*
X106904761Y-125833333D01*
X106857142Y-125785714D01*
X106761904Y-125738095D01*
X106523809Y-125738095D01*
X106428571Y-125785714D01*
X106380952Y-125833333D01*
X106333333Y-125928571D01*
X106333333Y-126119047D01*
X106380952Y-126214285D01*
X106428571Y-126261904D01*
X106523809Y-126309523D01*
X109452380Y-127642857D02*
X108976190Y-127976190D01*
X109452380Y-128214285D02*
X108452380Y-128214285D01*
X108452380Y-127833333D01*
X108500000Y-127738095D01*
X108547619Y-127690476D01*
X108642857Y-127642857D01*
X108785714Y-127642857D01*
X108880952Y-127690476D01*
X108928571Y-127738095D01*
X108976190Y-127833333D01*
X108976190Y-128214285D01*
X109452380Y-126690476D02*
X109452380Y-127261904D01*
X109452380Y-126976190D02*
X108452380Y-126976190D01*
X108595238Y-127071428D01*
X108690476Y-127166666D01*
X108738095Y-127261904D01*
X108452380Y-126357142D02*
X108452380Y-125690476D01*
X109452380Y-126119047D01*
X122452380Y-129142857D02*
X121976190Y-129476190D01*
X122452380Y-129714285D02*
X121452380Y-129714285D01*
X121452380Y-129333333D01*
X121500000Y-129238095D01*
X121547619Y-129190476D01*
X121642857Y-129142857D01*
X121785714Y-129142857D01*
X121880952Y-129190476D01*
X121928571Y-129238095D01*
X121976190Y-129333333D01*
X121976190Y-129714285D01*
X122452380Y-128190476D02*
X122452380Y-128761904D01*
X122452380Y-128476190D02*
X121452380Y-128476190D01*
X121595238Y-128571428D01*
X121690476Y-128666666D01*
X121738095Y-128761904D01*
X121880952Y-127619047D02*
X121833333Y-127714285D01*
X121785714Y-127761904D01*
X121690476Y-127809523D01*
X121642857Y-127809523D01*
X121547619Y-127761904D01*
X121500000Y-127714285D01*
X121452380Y-127619047D01*
X121452380Y-127428571D01*
X121500000Y-127333333D01*
X121547619Y-127285714D01*
X121642857Y-127238095D01*
X121690476Y-127238095D01*
X121785714Y-127285714D01*
X121833333Y-127333333D01*
X121880952Y-127428571D01*
X121880952Y-127619047D01*
X121928571Y-127714285D01*
X121976190Y-127761904D01*
X122071428Y-127809523D01*
X122261904Y-127809523D01*
X122357142Y-127761904D01*
X122404761Y-127714285D01*
X122452380Y-127619047D01*
X122452380Y-127428571D01*
X122404761Y-127333333D01*
X122357142Y-127285714D01*
X122261904Y-127238095D01*
X122071428Y-127238095D01*
X121976190Y-127285714D01*
X121928571Y-127333333D01*
X121880952Y-127428571D01*
X122452380Y-123642857D02*
X121976190Y-123976190D01*
X122452380Y-124214285D02*
X121452380Y-124214285D01*
X121452380Y-123833333D01*
X121500000Y-123738095D01*
X121547619Y-123690476D01*
X121642857Y-123642857D01*
X121785714Y-123642857D01*
X121880952Y-123690476D01*
X121928571Y-123738095D01*
X121976190Y-123833333D01*
X121976190Y-124214285D01*
X122452380Y-122690476D02*
X122452380Y-123261904D01*
X122452380Y-122976190D02*
X121452380Y-122976190D01*
X121595238Y-123071428D01*
X121690476Y-123166666D01*
X121738095Y-123261904D01*
X122452380Y-122214285D02*
X122452380Y-122023809D01*
X122404761Y-121928571D01*
X122357142Y-121880952D01*
X122214285Y-121785714D01*
X122023809Y-121738095D01*
X121642857Y-121738095D01*
X121547619Y-121785714D01*
X121500000Y-121833333D01*
X121452380Y-121928571D01*
X121452380Y-122119047D01*
X121500000Y-122214285D01*
X121547619Y-122261904D01*
X121642857Y-122309523D01*
X121880952Y-122309523D01*
X121976190Y-122261904D01*
X122023809Y-122214285D01*
X122071428Y-122119047D01*
X122071428Y-121928571D01*
X122023809Y-121833333D01*
X121976190Y-121785714D01*
X121880952Y-121738095D01*
X126652380Y-123642857D02*
X126176190Y-123976190D01*
X126652380Y-124214285D02*
X125652380Y-124214285D01*
X125652380Y-123833333D01*
X125700000Y-123738095D01*
X125747619Y-123690476D01*
X125842857Y-123642857D01*
X125985714Y-123642857D01*
X126080952Y-123690476D01*
X126128571Y-123738095D01*
X126176190Y-123833333D01*
X126176190Y-124214285D01*
X125747619Y-123261904D02*
X125700000Y-123214285D01*
X125652380Y-123119047D01*
X125652380Y-122880952D01*
X125700000Y-122785714D01*
X125747619Y-122738095D01*
X125842857Y-122690476D01*
X125938095Y-122690476D01*
X126080952Y-122738095D01*
X126652380Y-123309523D01*
X126652380Y-122690476D01*
X125652380Y-122071428D02*
X125652380Y-121976190D01*
X125700000Y-121880952D01*
X125747619Y-121833333D01*
X125842857Y-121785714D01*
X126033333Y-121738095D01*
X126271428Y-121738095D01*
X126461904Y-121785714D01*
X126557142Y-121833333D01*
X126604761Y-121880952D01*
X126652380Y-121976190D01*
X126652380Y-122071428D01*
X126604761Y-122166666D01*
X126557142Y-122214285D01*
X126461904Y-122261904D01*
X126271428Y-122309523D01*
X126033333Y-122309523D01*
X125842857Y-122261904D01*
X125747619Y-122214285D01*
X125700000Y-122166666D01*
X125652380Y-122071428D01*
X126652380Y-129142857D02*
X126176190Y-129476190D01*
X126652380Y-129714285D02*
X125652380Y-129714285D01*
X125652380Y-129333333D01*
X125700000Y-129238095D01*
X125747619Y-129190476D01*
X125842857Y-129142857D01*
X125985714Y-129142857D01*
X126080952Y-129190476D01*
X126128571Y-129238095D01*
X126176190Y-129333333D01*
X126176190Y-129714285D01*
X125747619Y-128761904D02*
X125700000Y-128714285D01*
X125652380Y-128619047D01*
X125652380Y-128380952D01*
X125700000Y-128285714D01*
X125747619Y-128238095D01*
X125842857Y-128190476D01*
X125938095Y-128190476D01*
X126080952Y-128238095D01*
X126652380Y-128809523D01*
X126652380Y-128190476D01*
X126652380Y-127238095D02*
X126652380Y-127809523D01*
X126652380Y-127523809D02*
X125652380Y-127523809D01*
X125795238Y-127619047D01*
X125890476Y-127714285D01*
X125938095Y-127809523D01*
X113457095Y-93974761D02*
X113599952Y-94022380D01*
X113838047Y-94022380D01*
X113933285Y-93974761D01*
X113980904Y-93927142D01*
X114028523Y-93831904D01*
X114028523Y-93736666D01*
X113980904Y-93641428D01*
X113933285Y-93593809D01*
X113838047Y-93546190D01*
X113647571Y-93498571D01*
X113552333Y-93450952D01*
X113504714Y-93403333D01*
X113457095Y-93308095D01*
X113457095Y-93212857D01*
X113504714Y-93117619D01*
X113552333Y-93070000D01*
X113647571Y-93022380D01*
X113885666Y-93022380D01*
X114028523Y-93070000D01*
X114980904Y-94022380D02*
X114409476Y-94022380D01*
X114695190Y-94022380D02*
X114695190Y-93022380D01*
X114599952Y-93165238D01*
X114504714Y-93260476D01*
X114409476Y-93308095D01*
X121466809Y-101102666D02*
X121943000Y-101102666D01*
X121371571Y-101388380D02*
X121704904Y-100388380D01*
X122038238Y-101388380D01*
X122800142Y-101388380D02*
X122800142Y-100388380D01*
X122800142Y-101340761D02*
X122704904Y-101388380D01*
X122514428Y-101388380D01*
X122419190Y-101340761D01*
X122371571Y-101293142D01*
X122323952Y-101197904D01*
X122323952Y-100912190D01*
X122371571Y-100816952D01*
X122419190Y-100769333D01*
X122514428Y-100721714D01*
X122704904Y-100721714D01*
X122800142Y-100769333D01*
X123704904Y-101388380D02*
X123704904Y-100864571D01*
X123657285Y-100769333D01*
X123562047Y-100721714D01*
X123371571Y-100721714D01*
X123276333Y-100769333D01*
X123704904Y-101340761D02*
X123609666Y-101388380D01*
X123371571Y-101388380D01*
X123276333Y-101340761D01*
X123228714Y-101245523D01*
X123228714Y-101150285D01*
X123276333Y-101055047D01*
X123371571Y-101007428D01*
X123609666Y-101007428D01*
X123704904Y-100959809D01*
X124038238Y-100721714D02*
X124419190Y-100721714D01*
X124181095Y-101388380D02*
X124181095Y-100531238D01*
X124228714Y-100436000D01*
X124323952Y-100388380D01*
X124419190Y-100388380D01*
X124752523Y-101388380D02*
X124752523Y-100721714D01*
X124752523Y-100912190D02*
X124800142Y-100816952D01*
X124847761Y-100769333D01*
X124943000Y-100721714D01*
X125038238Y-100721714D01*
X125800142Y-100721714D02*
X125800142Y-101388380D01*
X125371571Y-100721714D02*
X125371571Y-101245523D01*
X125419190Y-101340761D01*
X125514428Y-101388380D01*
X125657285Y-101388380D01*
X125752523Y-101340761D01*
X125800142Y-101293142D01*
X126276333Y-101388380D02*
X126276333Y-100721714D01*
X126276333Y-100388380D02*
X126228714Y-100436000D01*
X126276333Y-100483619D01*
X126323952Y-100436000D01*
X126276333Y-100388380D01*
X126276333Y-100483619D01*
X126609666Y-100721714D02*
X126990619Y-100721714D01*
X126752523Y-100388380D02*
X126752523Y-101245523D01*
X126800142Y-101340761D01*
X126895380Y-101388380D01*
X126990619Y-101388380D01*
X127085857Y-101483619D02*
X127847761Y-101483619D01*
X128419190Y-100864571D02*
X128085857Y-100864571D01*
X128085857Y-101388380D02*
X128085857Y-100388380D01*
X128562047Y-100388380D01*
X129323952Y-101340761D02*
X129228714Y-101388380D01*
X129038238Y-101388380D01*
X128943000Y-101340761D01*
X128895380Y-101245523D01*
X128895380Y-100864571D01*
X128943000Y-100769333D01*
X129038238Y-100721714D01*
X129228714Y-100721714D01*
X129323952Y-100769333D01*
X129371571Y-100864571D01*
X129371571Y-100959809D01*
X128895380Y-101055047D01*
X130228714Y-101388380D02*
X130228714Y-100864571D01*
X130181095Y-100769333D01*
X130085857Y-100721714D01*
X129895380Y-100721714D01*
X129800142Y-100769333D01*
X130228714Y-101340761D02*
X130133476Y-101388380D01*
X129895380Y-101388380D01*
X129800142Y-101340761D01*
X129752523Y-101245523D01*
X129752523Y-101150285D01*
X129800142Y-101055047D01*
X129895380Y-101007428D01*
X130133476Y-101007428D01*
X130228714Y-100959809D01*
X130562047Y-100721714D02*
X130943000Y-100721714D01*
X130704904Y-100388380D02*
X130704904Y-101245523D01*
X130752523Y-101340761D01*
X130847761Y-101388380D01*
X130943000Y-101388380D01*
X131276333Y-101388380D02*
X131276333Y-100388380D01*
X131704904Y-101388380D02*
X131704904Y-100864571D01*
X131657285Y-100769333D01*
X131562047Y-100721714D01*
X131419190Y-100721714D01*
X131323952Y-100769333D01*
X131276333Y-100816952D01*
X132562047Y-101340761D02*
X132466809Y-101388380D01*
X132276333Y-101388380D01*
X132181095Y-101340761D01*
X132133476Y-101245523D01*
X132133476Y-100864571D01*
X132181095Y-100769333D01*
X132276333Y-100721714D01*
X132466809Y-100721714D01*
X132562047Y-100769333D01*
X132609666Y-100864571D01*
X132609666Y-100959809D01*
X132133476Y-101055047D01*
X133038238Y-101388380D02*
X133038238Y-100721714D01*
X133038238Y-100912190D02*
X133085857Y-100816952D01*
X133133476Y-100769333D01*
X133228714Y-100721714D01*
X133323952Y-100721714D01*
X133657285Y-101007428D02*
X134419190Y-101007428D01*
X135419190Y-101388380D02*
X134847761Y-101388380D01*
X135133476Y-101388380D02*
X135133476Y-100388380D01*
X135038238Y-100531238D01*
X134943000Y-100626476D01*
X134847761Y-100674095D01*
X166452380Y-113761904D02*
X167261904Y-113761904D01*
X167357142Y-113714285D01*
X167404761Y-113666666D01*
X167452380Y-113571428D01*
X167452380Y-113380952D01*
X167404761Y-113285714D01*
X167357142Y-113238095D01*
X167261904Y-113190476D01*
X166452380Y-113190476D01*
X166785714Y-112285714D02*
X167452380Y-112285714D01*
X166404761Y-112523809D02*
X167119047Y-112761904D01*
X167119047Y-112142857D01*
X157738095Y-114827380D02*
X157738095Y-115636904D01*
X157785714Y-115732142D01*
X157833333Y-115779761D01*
X157928571Y-115827380D01*
X158119047Y-115827380D01*
X158214285Y-115779761D01*
X158261904Y-115732142D01*
X158309523Y-115636904D01*
X158309523Y-114827380D01*
X159261904Y-114827380D02*
X158785714Y-114827380D01*
X158738095Y-115303571D01*
X158785714Y-115255952D01*
X158880952Y-115208333D01*
X159119047Y-115208333D01*
X159214285Y-115255952D01*
X159261904Y-115303571D01*
X159309523Y-115398809D01*
X159309523Y-115636904D01*
X159261904Y-115732142D01*
X159214285Y-115779761D01*
X159119047Y-115827380D01*
X158880952Y-115827380D01*
X158785714Y-115779761D01*
X158738095Y-115732142D01*
X166781166Y-102300833D02*
X166781166Y-102634166D01*
X166547833Y-101934166D02*
X166781166Y-102300833D01*
X167014500Y-101934166D01*
X167614500Y-102634166D02*
X167214500Y-102634166D01*
X167414500Y-102634166D02*
X167414500Y-101934166D01*
X167347833Y-102034166D01*
X167281166Y-102100833D01*
X167214500Y-102134166D01*
X101495285Y-94133571D02*
X101638142Y-94181190D01*
X101685761Y-94228809D01*
X101733380Y-94324047D01*
X101733380Y-94466904D01*
X101685761Y-94562142D01*
X101638142Y-94609761D01*
X101542904Y-94657380D01*
X101161952Y-94657380D01*
X101161952Y-93657380D01*
X101495285Y-93657380D01*
X101590523Y-93705000D01*
X101638142Y-93752619D01*
X101685761Y-93847857D01*
X101685761Y-93943095D01*
X101638142Y-94038333D01*
X101590523Y-94085952D01*
X101495285Y-94133571D01*
X101161952Y-94133571D01*
X102019095Y-93657380D02*
X102590523Y-93657380D01*
X102304809Y-94657380D02*
X102304809Y-93657380D01*
X103447666Y-94657380D02*
X102876238Y-94657380D01*
X103161952Y-94657380D02*
X103161952Y-93657380D01*
X103066714Y-93800238D01*
X102971476Y-93895476D01*
X102876238Y-93943095D01*
X156788095Y-87926380D02*
X156788095Y-86926380D01*
X157359523Y-87926380D01*
X157359523Y-86926380D01*
X157692857Y-86926380D02*
X158264285Y-86926380D01*
X157978571Y-87926380D02*
X157978571Y-86926380D01*
X159169047Y-87831142D02*
X159121428Y-87878761D01*
X158978571Y-87926380D01*
X158883333Y-87926380D01*
X158740476Y-87878761D01*
X158645238Y-87783523D01*
X158597619Y-87688285D01*
X158550000Y-87497809D01*
X158550000Y-87354952D01*
X158597619Y-87164476D01*
X158645238Y-87069238D01*
X158740476Y-86974000D01*
X158883333Y-86926380D01*
X158978571Y-86926380D01*
X159121428Y-86974000D01*
X159169047Y-87021619D01*
X159597619Y-87545428D02*
X160359523Y-87545428D01*
X161359523Y-87926380D02*
X160788095Y-87926380D01*
X161073809Y-87926380D02*
X161073809Y-86926380D01*
X160978571Y-87069238D01*
X160883333Y-87164476D01*
X160788095Y-87212095D01*
X163642857Y-131904761D02*
X163785714Y-131952380D01*
X164023809Y-131952380D01*
X164119047Y-131904761D01*
X164166666Y-131857142D01*
X164214285Y-131761904D01*
X164214285Y-131666666D01*
X164166666Y-131571428D01*
X164119047Y-131523809D01*
X164023809Y-131476190D01*
X163833333Y-131428571D01*
X163738095Y-131380952D01*
X163690476Y-131333333D01*
X163642857Y-131238095D01*
X163642857Y-131142857D01*
X163690476Y-131047619D01*
X163738095Y-131000000D01*
X163833333Y-130952380D01*
X164071428Y-130952380D01*
X164214285Y-131000000D01*
X164595238Y-131904761D02*
X164738095Y-131952380D01*
X164976190Y-131952380D01*
X165071428Y-131904761D01*
X165119047Y-131857142D01*
X165166666Y-131761904D01*
X165166666Y-131666666D01*
X165119047Y-131571428D01*
X165071428Y-131523809D01*
X164976190Y-131476190D01*
X164785714Y-131428571D01*
X164690476Y-131380952D01*
X164642857Y-131333333D01*
X164595238Y-131238095D01*
X164595238Y-131142857D01*
X164642857Y-131047619D01*
X164690476Y-131000000D01*
X164785714Y-130952380D01*
X165023809Y-130952380D01*
X165166666Y-131000000D01*
X166166666Y-131952380D02*
X165833333Y-131476190D01*
X165595238Y-131952380D02*
X165595238Y-130952380D01*
X165976190Y-130952380D01*
X166071428Y-131000000D01*
X166119047Y-131047619D01*
X166166666Y-131142857D01*
X166166666Y-131285714D01*
X166119047Y-131380952D01*
X166071428Y-131428571D01*
X165976190Y-131476190D01*
X165595238Y-131476190D01*
X166595238Y-131571428D02*
X167357142Y-131571428D01*
X168357142Y-131952380D02*
X167785714Y-131952380D01*
X168071428Y-131952380D02*
X168071428Y-130952380D01*
X167976190Y-131095238D01*
X167880952Y-131190476D01*
X167785714Y-131238095D01*
X176142857Y-131904761D02*
X176285714Y-131952380D01*
X176523809Y-131952380D01*
X176619047Y-131904761D01*
X176666666Y-131857142D01*
X176714285Y-131761904D01*
X176714285Y-131666666D01*
X176666666Y-131571428D01*
X176619047Y-131523809D01*
X176523809Y-131476190D01*
X176333333Y-131428571D01*
X176238095Y-131380952D01*
X176190476Y-131333333D01*
X176142857Y-131238095D01*
X176142857Y-131142857D01*
X176190476Y-131047619D01*
X176238095Y-131000000D01*
X176333333Y-130952380D01*
X176571428Y-130952380D01*
X176714285Y-131000000D01*
X177095238Y-131904761D02*
X177238095Y-131952380D01*
X177476190Y-131952380D01*
X177571428Y-131904761D01*
X177619047Y-131857142D01*
X177666666Y-131761904D01*
X177666666Y-131666666D01*
X177619047Y-131571428D01*
X177571428Y-131523809D01*
X177476190Y-131476190D01*
X177285714Y-131428571D01*
X177190476Y-131380952D01*
X177142857Y-131333333D01*
X177095238Y-131238095D01*
X177095238Y-131142857D01*
X177142857Y-131047619D01*
X177190476Y-131000000D01*
X177285714Y-130952380D01*
X177523809Y-130952380D01*
X177666666Y-131000000D01*
X178666666Y-131952380D02*
X178333333Y-131476190D01*
X178095238Y-131952380D02*
X178095238Y-130952380D01*
X178476190Y-130952380D01*
X178571428Y-131000000D01*
X178619047Y-131047619D01*
X178666666Y-131142857D01*
X178666666Y-131285714D01*
X178619047Y-131380952D01*
X178571428Y-131428571D01*
X178476190Y-131476190D01*
X178095238Y-131476190D01*
X179095238Y-131571428D02*
X179857142Y-131571428D01*
X180285714Y-131047619D02*
X180333333Y-131000000D01*
X180428571Y-130952380D01*
X180666666Y-130952380D01*
X180761904Y-131000000D01*
X180809523Y-131047619D01*
X180857142Y-131142857D01*
X180857142Y-131238095D01*
X180809523Y-131380952D01*
X180238095Y-131952380D01*
X180857142Y-131952380D01*
X164154095Y-87926380D02*
X164154095Y-86926380D01*
X164725523Y-87926380D01*
X164725523Y-86926380D01*
X165058857Y-86926380D02*
X165630285Y-86926380D01*
X165344571Y-87926380D02*
X165344571Y-86926380D01*
X166535047Y-87831142D02*
X166487428Y-87878761D01*
X166344571Y-87926380D01*
X166249333Y-87926380D01*
X166106476Y-87878761D01*
X166011238Y-87783523D01*
X165963619Y-87688285D01*
X165916000Y-87497809D01*
X165916000Y-87354952D01*
X165963619Y-87164476D01*
X166011238Y-87069238D01*
X166106476Y-86974000D01*
X166249333Y-86926380D01*
X166344571Y-86926380D01*
X166487428Y-86974000D01*
X166535047Y-87021619D01*
X166963619Y-87545428D02*
X167725523Y-87545428D01*
X168154095Y-87021619D02*
X168201714Y-86974000D01*
X168296952Y-86926380D01*
X168535047Y-86926380D01*
X168630285Y-86974000D01*
X168677904Y-87021619D01*
X168725523Y-87116857D01*
X168725523Y-87212095D01*
X168677904Y-87354952D01*
X168106476Y-87926380D01*
X168725523Y-87926380D01*
X92240142Y-96340142D02*
X92192523Y-96387761D01*
X92049666Y-96435380D01*
X91954428Y-96435380D01*
X91811571Y-96387761D01*
X91716333Y-96292523D01*
X91668714Y-96197285D01*
X91621095Y-96006809D01*
X91621095Y-95863952D01*
X91668714Y-95673476D01*
X91716333Y-95578238D01*
X91811571Y-95483000D01*
X91954428Y-95435380D01*
X92049666Y-95435380D01*
X92192523Y-95483000D01*
X92240142Y-95530619D01*
X93192523Y-96435380D02*
X92621095Y-96435380D01*
X92906809Y-96435380D02*
X92906809Y-95435380D01*
X92811571Y-95578238D01*
X92716333Y-95673476D01*
X92621095Y-95721095D01*
X93573476Y-95530619D02*
X93621095Y-95483000D01*
X93716333Y-95435380D01*
X93954428Y-95435380D01*
X94049666Y-95483000D01*
X94097285Y-95530619D01*
X94144904Y-95625857D01*
X94144904Y-95721095D01*
X94097285Y-95863952D01*
X93525857Y-96435380D01*
X94144904Y-96435380D01*
X145278095Y-71892380D02*
X145278095Y-72701904D01*
X145325714Y-72797142D01*
X145373333Y-72844761D01*
X145468571Y-72892380D01*
X145659047Y-72892380D01*
X145754285Y-72844761D01*
X145801904Y-72797142D01*
X145849523Y-72701904D01*
X145849523Y-71892380D01*
X146278095Y-71987619D02*
X146325714Y-71940000D01*
X146420952Y-71892380D01*
X146659047Y-71892380D01*
X146754285Y-71940000D01*
X146801904Y-71987619D01*
X146849523Y-72082857D01*
X146849523Y-72178095D01*
X146801904Y-72320952D01*
X146230476Y-72892380D01*
X146849523Y-72892380D01*
X174115619Y-87053380D02*
X174687047Y-87053380D01*
X174401333Y-88053380D02*
X174401333Y-87053380D01*
X175020380Y-88053380D02*
X175020380Y-87053380D01*
X175353714Y-87767666D01*
X175687047Y-87053380D01*
X175687047Y-88053380D01*
X176163238Y-87672428D02*
X176925142Y-87672428D01*
X177925142Y-88053380D02*
X177353714Y-88053380D01*
X177639428Y-88053380D02*
X177639428Y-87053380D01*
X177544190Y-87196238D01*
X177448952Y-87291476D01*
X177353714Y-87339095D01*
X105797333Y-135099142D02*
X105749714Y-135146761D01*
X105606857Y-135194380D01*
X105511619Y-135194380D01*
X105368761Y-135146761D01*
X105273523Y-135051523D01*
X105225904Y-134956285D01*
X105178285Y-134765809D01*
X105178285Y-134622952D01*
X105225904Y-134432476D01*
X105273523Y-134337238D01*
X105368761Y-134242000D01*
X105511619Y-134194380D01*
X105606857Y-134194380D01*
X105749714Y-134242000D01*
X105797333Y-134289619D01*
X106273523Y-135194380D02*
X106464000Y-135194380D01*
X106559238Y-135146761D01*
X106606857Y-135099142D01*
X106702095Y-134956285D01*
X106749714Y-134765809D01*
X106749714Y-134384857D01*
X106702095Y-134289619D01*
X106654476Y-134242000D01*
X106559238Y-134194380D01*
X106368761Y-134194380D01*
X106273523Y-134242000D01*
X106225904Y-134289619D01*
X106178285Y-134384857D01*
X106178285Y-134622952D01*
X106225904Y-134718190D01*
X106273523Y-134765809D01*
X106368761Y-134813428D01*
X106559238Y-134813428D01*
X106654476Y-134765809D01*
X106702095Y-134718190D01*
X106749714Y-134622952D01*
X102803047Y-133223428D02*
X103564952Y-133223428D01*
X103184000Y-133604380D02*
X103184000Y-132842476D01*
X128816142Y-131392142D02*
X128768523Y-131439761D01*
X128625666Y-131487380D01*
X128530428Y-131487380D01*
X128387571Y-131439761D01*
X128292333Y-131344523D01*
X128244714Y-131249285D01*
X128197095Y-131058809D01*
X128197095Y-130915952D01*
X128244714Y-130725476D01*
X128292333Y-130630238D01*
X128387571Y-130535000D01*
X128530428Y-130487380D01*
X128625666Y-130487380D01*
X128768523Y-130535000D01*
X128816142Y-130582619D01*
X129768523Y-131487380D02*
X129197095Y-131487380D01*
X129482809Y-131487380D02*
X129482809Y-130487380D01*
X129387571Y-130630238D01*
X129292333Y-130725476D01*
X129197095Y-130773095D01*
X130387571Y-130487380D02*
X130482809Y-130487380D01*
X130578047Y-130535000D01*
X130625666Y-130582619D01*
X130673285Y-130677857D01*
X130720904Y-130868333D01*
X130720904Y-131106428D01*
X130673285Y-131296904D01*
X130625666Y-131392142D01*
X130578047Y-131439761D01*
X130482809Y-131487380D01*
X130387571Y-131487380D01*
X130292333Y-131439761D01*
X130244714Y-131392142D01*
X130197095Y-131296904D01*
X130149476Y-131106428D01*
X130149476Y-130868333D01*
X130197095Y-130677857D01*
X130244714Y-130582619D01*
X130292333Y-130535000D01*
X130387571Y-130487380D01*
X127581428Y-124100952D02*
X127581428Y-123339047D01*
X127962380Y-123720000D02*
X127200476Y-123720000D01*
X113044476Y-131757380D02*
X113377809Y-132757380D01*
X113711142Y-131757380D01*
X113901619Y-131757380D02*
X114473047Y-131757380D01*
X114187333Y-132757380D02*
X114187333Y-131757380D01*
X114806380Y-132376428D02*
X115568285Y-132376428D01*
X116568285Y-132757380D02*
X115996857Y-132757380D01*
X116282571Y-132757380D02*
X116282571Y-131757380D01*
X116187333Y-131900238D01*
X116092095Y-131995476D01*
X115996857Y-132043095D01*
X143460761Y-93736619D02*
X143365523Y-93689000D01*
X143270285Y-93593761D01*
X143127428Y-93450904D01*
X143032190Y-93403285D01*
X142936952Y-93403285D01*
X142984571Y-93641380D02*
X142889333Y-93593761D01*
X142794095Y-93498523D01*
X142746476Y-93308047D01*
X142746476Y-92974714D01*
X142794095Y-92784238D01*
X142889333Y-92689000D01*
X142984571Y-92641380D01*
X143175047Y-92641380D01*
X143270285Y-92689000D01*
X143365523Y-92784238D01*
X143413142Y-92974714D01*
X143413142Y-93308047D01*
X143365523Y-93498523D01*
X143270285Y-93593761D01*
X143175047Y-93641380D01*
X142984571Y-93641380D01*
X144365523Y-93641380D02*
X143794095Y-93641380D01*
X144079809Y-93641380D02*
X144079809Y-92641380D01*
X143984571Y-92784238D01*
X143889333Y-92879476D01*
X143794095Y-92927095D01*
X143460761Y-88529619D02*
X143365523Y-88482000D01*
X143270285Y-88386761D01*
X143127428Y-88243904D01*
X143032190Y-88196285D01*
X142936952Y-88196285D01*
X142984571Y-88434380D02*
X142889333Y-88386761D01*
X142794095Y-88291523D01*
X142746476Y-88101047D01*
X142746476Y-87767714D01*
X142794095Y-87577238D01*
X142889333Y-87482000D01*
X142984571Y-87434380D01*
X143175047Y-87434380D01*
X143270285Y-87482000D01*
X143365523Y-87577238D01*
X143413142Y-87767714D01*
X143413142Y-88101047D01*
X143365523Y-88291523D01*
X143270285Y-88386761D01*
X143175047Y-88434380D01*
X142984571Y-88434380D01*
X143794095Y-87529619D02*
X143841714Y-87482000D01*
X143936952Y-87434380D01*
X144175047Y-87434380D01*
X144270285Y-87482000D01*
X144317904Y-87529619D01*
X144365523Y-87624857D01*
X144365523Y-87720095D01*
X144317904Y-87862952D01*
X143746476Y-88434380D01*
X144365523Y-88434380D01*
X156914761Y-128669333D02*
X156962380Y-128526476D01*
X156962380Y-128288380D01*
X156914761Y-128193142D01*
X156867142Y-128145523D01*
X156771904Y-128097904D01*
X156676666Y-128097904D01*
X156581428Y-128145523D01*
X156533809Y-128193142D01*
X156486190Y-128288380D01*
X156438571Y-128478857D01*
X156390952Y-128574095D01*
X156343333Y-128621714D01*
X156248095Y-128669333D01*
X156152857Y-128669333D01*
X156057619Y-128621714D01*
X156010000Y-128574095D01*
X155962380Y-128478857D01*
X155962380Y-128240761D01*
X156010000Y-128097904D01*
X156438571Y-127669333D02*
X156438571Y-127336000D01*
X156962380Y-127193142D02*
X156962380Y-127669333D01*
X155962380Y-127669333D01*
X155962380Y-127193142D01*
X156962380Y-126193142D02*
X156486190Y-126526476D01*
X156962380Y-126764571D02*
X155962380Y-126764571D01*
X155962380Y-126383619D01*
X156010000Y-126288380D01*
X156057619Y-126240761D01*
X156152857Y-126193142D01*
X156295714Y-126193142D01*
X156390952Y-126240761D01*
X156438571Y-126288380D01*
X156486190Y-126383619D01*
X156486190Y-126764571D01*
X156581428Y-125764571D02*
X156581428Y-125002666D01*
X156962380Y-124002666D02*
X156962380Y-124574095D01*
X156962380Y-124288380D02*
X155962380Y-124288380D01*
X156105238Y-124383619D01*
X156200476Y-124478857D01*
X156248095Y-124574095D01*
D15*
G36*
X140396357Y-77441000D02*
X130236357Y-77441000D01*
X130236357Y-75155000D01*
X140396357Y-75155000D01*
X140396357Y-77441000D01*
X140396357Y-77441000D01*
G37*
X140396357Y-77441000D02*
X130236357Y-77441000D01*
X130236357Y-75155000D01*
X140396357Y-75155000D01*
X140396357Y-77441000D01*
G36*
X180655560Y-76933000D02*
X163637560Y-76933000D01*
X163637560Y-73631000D01*
X180655560Y-73631000D01*
X180655560Y-76933000D01*
X180655560Y-76933000D01*
G37*
X180655560Y-76933000D02*
X163637560Y-76933000D01*
X163637560Y-73631000D01*
X180655560Y-73631000D01*
X180655560Y-76933000D01*
M02*
