G04 #@! TF.GenerationSoftware,KiCad,Pcbnew,no-vcs-found-01f5a12~58~ubuntu16.04.1*
G04 #@! TF.CreationDate,2017-04-25T17:38:21-04:00*
G04 #@! TF.ProjectId,noeud_senseur,6E6F6575645F73656E736575722E6B69,rev?*
G04 #@! TF.FileFunction,Soldermask,Bot*
G04 #@! TF.FilePolarity,Negative*
%FSLAX46Y46*%
G04 Gerber Fmt 4.6, Leading zero omitted, Abs format (unit mm)*
G04 Created by KiCad (PCBNEW no-vcs-found-01f5a12~58~ubuntu16.04.1) date Tue Apr 25 17:38:21 2017*
%MOMM*%
%LPD*%
G01*
G04 APERTURE LIST*
%ADD10C,0.100000*%
%ADD11C,6.000000*%
%ADD12R,1.200000X2.300000*%
%ADD13C,1.924000*%
%ADD14R,1.924000X1.924000*%
%ADD15C,1.797000*%
%ADD16R,1.797000X1.797000*%
%ADD17C,2.940000*%
%ADD18R,1.670000X1.670000*%
%ADD19C,1.670000*%
%ADD20R,2.000000X2.000000*%
%ADD21C,2.000000*%
%ADD22R,1.700000X1.900000*%
%ADD23R,1.900000X1.700000*%
%ADD24R,1.650000X1.900000*%
%ADD25R,2.400000X2.300000*%
%ADD26C,2.300000*%
%ADD27C,1.000000*%
%ADD28R,1.300000X1.900000*%
%ADD29O,1.300000X1.900000*%
%ADD30R,2.100000X2.100000*%
%ADD31O,2.100000X2.100000*%
%ADD32O,2.127200X2.432000*%
%ADD33C,3.448000*%
%ADD34C,2.432000*%
%ADD35R,2.432000X2.432000*%
%ADD36O,2.400000X3.000000*%
%ADD37R,2.400000X3.000000*%
%ADD38R,1.920000X1.920000*%
%ADD39C,1.920000*%
%ADD40R,3.000000X2.400000*%
%ADD41O,3.000000X2.400000*%
%ADD42R,2.300000X1.200000*%
%ADD43R,1.900000X1.650000*%
%ADD44R,1.000000X2.200000*%
G04 APERTURE END LIST*
D10*
D11*
X185000000Y-76000000D03*
X155000000Y-76000000D03*
X125000000Y-76000000D03*
X95000000Y-76000000D03*
X185000000Y-134000000D03*
X155000000Y-134000000D03*
X125000000Y-134000000D03*
X95000000Y-134000000D03*
D12*
X159497000Y-130805000D03*
X161397000Y-130805000D03*
X160447000Y-133805000D03*
D13*
X136991600Y-80044200D03*
X122005600Y-80044200D03*
X133994400Y-82000000D03*
X130997200Y-82000000D03*
X128000000Y-82000000D03*
D14*
X125002800Y-82000000D03*
D15*
X140005600Y-80044200D03*
X151994400Y-80044200D03*
X148997200Y-82000000D03*
X146000000Y-82000000D03*
D16*
X143002800Y-82000000D03*
D17*
X181681399Y-109152900D03*
X181681399Y-101863101D03*
D18*
X181681399Y-104022101D03*
D19*
X181681399Y-107019301D03*
D17*
X181681399Y-120328900D03*
X181681399Y-113039101D03*
D18*
X181681399Y-115198101D03*
D19*
X181681399Y-118195301D03*
D13*
X141904999Y-128498600D03*
X141904999Y-125501400D03*
D14*
X144902199Y-125501400D03*
D13*
X144902199Y-128498600D03*
X140965199Y-122504200D03*
X140965199Y-131495800D03*
D20*
X95000000Y-120000000D03*
D21*
X100000000Y-125000000D03*
X100000000Y-115000000D03*
D22*
X170500000Y-125400000D03*
X170500000Y-122700000D03*
D23*
X143890000Y-101952000D03*
X141190000Y-101952000D03*
D24*
X99500000Y-83750000D03*
X99500000Y-81250000D03*
D25*
X152065000Y-92300000D03*
D26*
X152065000Y-94840000D03*
X152000000Y-88540000D03*
D25*
X152000000Y-86000000D03*
D27*
X176449000Y-110969000D03*
X175449000Y-110969000D03*
D22*
X172080000Y-90850000D03*
X172080000Y-88150000D03*
X174580000Y-88150000D03*
X174580000Y-90850000D03*
X157580000Y-88150000D03*
X157580000Y-90850000D03*
X160080000Y-90850000D03*
X160080000Y-88150000D03*
X167000000Y-131650000D03*
X167000000Y-134350000D03*
X164500000Y-134350000D03*
X164500000Y-131650000D03*
X179500000Y-131650000D03*
X179500000Y-134350000D03*
X177000000Y-134350000D03*
X177000000Y-131650000D03*
X165216000Y-90850000D03*
X165216000Y-88150000D03*
X167580000Y-88150000D03*
X167580000Y-90850000D03*
X178080000Y-90850000D03*
X178080000Y-88150000D03*
X180580000Y-88150000D03*
X180580000Y-90850000D03*
X125000000Y-84650000D03*
X125000000Y-87350000D03*
X128000000Y-87350000D03*
X128000000Y-84650000D03*
X131000000Y-87350000D03*
X131000000Y-84650000D03*
X134000000Y-87350000D03*
X134000000Y-84650000D03*
D28*
X126770000Y-93500000D03*
D29*
X124230000Y-93500000D03*
X125500000Y-93500000D03*
D23*
X143650000Y-94500000D03*
X146350000Y-94500000D03*
X144150000Y-90000000D03*
X146850000Y-90000000D03*
X141190000Y-104238000D03*
X143890000Y-104238000D03*
X141190000Y-106524000D03*
X143890000Y-106524000D03*
X160350000Y-94500000D03*
X157650000Y-94500000D03*
X174850000Y-94500000D03*
X172150000Y-94500000D03*
D22*
X158161000Y-125400000D03*
X158161000Y-122700000D03*
D23*
X158208000Y-127860000D03*
X160908000Y-127860000D03*
X170654000Y-127860000D03*
X173354000Y-127860000D03*
X165150000Y-94500000D03*
X167850000Y-94500000D03*
D22*
X175560000Y-100508000D03*
X175560000Y-97808000D03*
D30*
X119426000Y-93570000D03*
D31*
X116886000Y-93570000D03*
D32*
X123738000Y-115020000D03*
X121198000Y-115020000D03*
X125000000Y-98500000D03*
X127540000Y-98500000D03*
X130080000Y-98500000D03*
X132620000Y-98500000D03*
X135160000Y-98500000D03*
X137700000Y-98500000D03*
X140240000Y-98500000D03*
X142780000Y-98500000D03*
X145320000Y-98500000D03*
X147860000Y-98500000D03*
X150400000Y-98500000D03*
X150400000Y-118820000D03*
X147860000Y-118820000D03*
X145320000Y-118820000D03*
X142780000Y-118820000D03*
X140240000Y-118820000D03*
X137700000Y-118820000D03*
X135160000Y-118820000D03*
X132620000Y-118820000D03*
X130080000Y-118820000D03*
X127540000Y-118820000D03*
X125000000Y-118820000D03*
X122460000Y-118820000D03*
X122460000Y-98500000D03*
X119920000Y-118820000D03*
X117380000Y-118820000D03*
X114840000Y-118820000D03*
X112300000Y-118820000D03*
D33*
X154210000Y-99770000D03*
X154210000Y-117550000D03*
X108490000Y-117550000D03*
X108490000Y-99770000D03*
D34*
X108000000Y-75000000D03*
D35*
X108000000Y-95000000D03*
D36*
X160120000Y-83000000D03*
D37*
X157580000Y-83000000D03*
X167000000Y-127000000D03*
D36*
X164460000Y-127000000D03*
D37*
X179500000Y-127000000D03*
D36*
X176960000Y-127000000D03*
D37*
X165040000Y-83000000D03*
D36*
X167580000Y-83000000D03*
D38*
X143500000Y-76000000D03*
D39*
X148580000Y-76000000D03*
X146040000Y-76000000D03*
D23*
X178150000Y-93500000D03*
X180850000Y-93500000D03*
D36*
X180120000Y-83000000D03*
X177580000Y-83000000D03*
X175040000Y-83000000D03*
D37*
X172500000Y-83000000D03*
D40*
X115000000Y-129500000D03*
D41*
X115000000Y-126960000D03*
X115000000Y-124420000D03*
D12*
X172450000Y-134000000D03*
X173400000Y-131000000D03*
X171500000Y-131000000D03*
D41*
X152000000Y-123960000D03*
X152000000Y-126500000D03*
D40*
X152000000Y-129040000D03*
D42*
X183966000Y-92554000D03*
X186966000Y-93504000D03*
X186966000Y-91604000D03*
D43*
X125500000Y-90000000D03*
X128000000Y-90000000D03*
X144500000Y-85000000D03*
X147000000Y-85000000D03*
D44*
X103555000Y-88150000D03*
X104825000Y-88150000D03*
X106095000Y-88150000D03*
X107365000Y-88150000D03*
X108635000Y-88150000D03*
X109905000Y-88150000D03*
X111175000Y-88150000D03*
X112445000Y-88150000D03*
X112445000Y-78850000D03*
X111175000Y-78850000D03*
X109905000Y-78850000D03*
X108635000Y-78850000D03*
X107365000Y-78850000D03*
X106095000Y-78850000D03*
X104825000Y-78850000D03*
X103555000Y-78850000D03*
M02*
